<svg width="1928" height="2270" viewBox="0 0 1928 2270" fill="none" xmlns="http://www.w3.org/2000/svg">
<rect width="1928" height="2270" fill="#F5F5F5"/>
<g id="ChurchWindowOuter">
<rect width="1928" height="2270" fill="#DDDDDD"/>
<path id="ConnectorElement" d="M1101 439H1492V469H1101V439Z" fill="#9B9B9B"/>
<g id="InfoBoxSDCGlue" filter="url(#filter0_d_0_1)">
<rect id="ConnectorElement_2" x="1314" y="1337.85" width="122.853" height="30" transform="rotate(-90 1314 1337.85)" fill="#9B9B9B"/>
<rect id="infobox" x="1297" y="1296" width="482" height="400" fill="#9B9B9B"/>
<g id="infobox_2">
<text fill="white" xml:space="preserve" style="white-space: pre" font-family="Open Sans Hebrew" font-size="24" letter-spacing="0em"><tspan x="1314" y="1369.81">and  </tspan><tspan x="1378.45" y="1369.81">other </tspan><tspan x="1450.28" y="1369.81">coding </tspan><tspan x="1535.7" y="1369.81">systems </tspan><tspan x="1637.22" y="1369.81">define </tspan><tspan x="1718.65" y="1369.81">how </tspan><tspan x="1314" y="1402.81">medical </tspan><tspan x="1427.25" y="1402.81">information </tspan><tspan x="1585.81" y="1402.81">is </tspan><tspan x="1629.12" y="1402.81">coded </tspan><tspan x="1723.76" y="1402.81">and </tspan><tspan x="1314" y="1435.81">categorized. </tspan><tspan x="1487.91" y="1435.81">This </tspan><tspan x="1571.28" y="1435.81">helps </tspan><tspan x="1669.55" y="1435.81">different </tspan><tspan x="1314" y="1468.81">healthcare </tspan><tspan x="1456.55" y="1468.81">devices </tspan><tspan x="1562.8" y="1468.81">and </tspan><tspan x="1629.26" y="1468.81">systems </tspan><tspan x="1743.59" y="1468.81">to </tspan><tspan x="1314" y="1501.81">understand </tspan><tspan x="1457.5" y="1501.81">and </tspan><tspan x="1513.6" y="1501.81">exchange </tspan><tspan x="1633.83" y="1501.81">information </tspan><tspan x="1314" y="1534.81">accurately. </tspan><tspan x="1444.42" y="1534.81">This </tspan><tspan x="1499.78" y="1534.81">nomenclature </tspan><tspan x="1666.74" y="1534.81">supports </tspan><tspan x="1314" y="1567.81">both </tspan><tspan x="1384.91" y="1567.81">the </tspan><tspan x="1440.07" y="1567.81">domain </tspan><tspan x="1544.26" y="1567.81">information </tspan><tspan x="1695.47" y="1567.81">model </tspan><tspan x="1314" y="1600.81">and </tspan><tspan x="1365.94" y="1600.81">service </tspan><tspan x="1452.76" y="1600.81">model </tspan><tspan x="1532.99" y="1600.81">components, </tspan><tspan x="1688.37" y="1600.81">as </tspan><tspan x="1722.29" y="1600.81">well </tspan><tspan x="1314" y="1633.81">as </tspan><tspan x="1345.65" y="1633.81">the </tspan><tspan x="1389.21" y="1633.81">semantic </tspan><tspan x="1497.38" y="1633.81">content </tspan><tspan x="1590.09" y="1633.81">exchanged </tspan><tspan x="1718.61" y="1633.81">with </tspan><tspan x="1314" y="1666.81">medical </tspan><tspan x="1407.68" y="1666.81">devices</tspan></text>
<text fill="white" xml:space="preserve" style="white-space: pre" font-family="Open Sans Hebrew" font-size="24" font-weight="bold" letter-spacing="0em"><tspan x="1314" y="1336.81">ISO/IEEE </tspan><tspan x="1430.42" y="1336.81">11073-10101 </tspan><tspan x="1593.19" y="1336.81">Nomenclature </tspan></text>
</g>
</g>
<g id="InfoBoxSDCGlue_2" filter="url(#filter1_d_0_1)">
<rect id="ConnectorElement_3" x="425" y="880" width="118" height="30" fill="#9B9B9B"/>
<rect id="infobox_3" x="15" y="851" width="482" height="392" fill="#9B9B9B"/>
<g id="infobox_4">
<text fill="white" xml:space="preserve" style="white-space: pre" font-family="Open Sans Hebrew" font-size="24" letter-spacing="0em"><tspan x="131.692" y="1025.95"> </tspan><tspan x="143.693" y="1025.95">defines </tspan><tspan x="237.748" y="1025.95">the  </tspan><tspan x="298.453" y="1025.95">service </tspan><tspan x="388.149" y="1025.95">oriented </tspan><tspan x="30.8404" y="1058.95">architecture </tspan><tspan x="193.639" y="1058.95">and </tspan><tspan x="263.999" y="1058.95">specifies </tspan><tspan x="387.774" y="1058.95">bindings </tspan><tspan x="30.8404" y="1091.95">toward </tspan><tspan x="124.61" y="1091.95">other </tspan><tspan x="199.84" y="1091.95">standards </tspan><tspan x="326.118" y="1091.95">such </tspan><tspan x="392.676" y="1091.95">as </tspan><tspan x="431.696" y="1091.95">NTP, </tspan><tspan x="30.8404" y="1124.95">Differentiated </tspan><tspan x="263.53" y="1124.95">Services, </tspan><tspan x="437.04" y="1124.95">QoS </tspan><tspan x="30.8404" y="1157.95">Requirements, </tspan><tspan x="202.587" y="1157.95">-20702 </tspan><tspan x="287.262" y="1157.95">and </tspan><tspan x="338.352" y="1157.95">-10207.  </tspan><tspan x="437.696" y="1157.95">Due </tspan><tspan x="30.8404" y="1190.95">to </tspan><tspan x="61.6646" y="1190.95">its </tspan><tspan x="95.4889" y="1190.95">binding </tspan><tspan x="187.532" y="1190.95">nature, </tspan><tspan x="275.848" y="1190.95">it </tspan><tspan x="298.235" y="1190.95">is </tspan><tspan x="323.575" y="1190.95">often </tspan><tspan x="390.751" y="1190.95">referred </tspan><tspan x="30.8404" y="1223.95">as </tspan><tspan x="61.8716" y="1223.95">&#x201c;</tspan><tspan x="177.489" y="1223.95">&#x201d; </tspan></text>
<text fill="white" xml:space="preserve" style="white-space: pre" font-family="Open Sans Hebrew" font-size="24" font-weight="bold" letter-spacing="0em"><tspan x="30.8404" y="893.953">ISO/IEEE </tspan><tspan x="147.667" y="893.953">11073-20701: </tspan><tspan x="317.696" y="893.953">&#x201c;Point-of-care </tspan><tspan x="30.8404" y="926.953">medical </tspan><tspan x="163.932" y="926.953">device </tspan><tspan x="279.446" y="926.953">communication--</tspan><tspan x="30.8404" y="959.953">Service </tspan><tspan x="147.514" y="959.953">oriented </tspan><tspan x="281.202" y="959.953">medical </tspan><tspan x="406.524" y="959.953">device </tspan><tspan x="30.8404" y="992.953">exchange </tspan><tspan x="159.389" y="992.953">architecture </tspan><tspan x="322.835" y="992.953">and </tspan><tspan x="382.641" y="992.953">protocol </tspan><tspan x="30.8404" y="1025.95">binding&#x201d;</tspan></text>
<text fill="white" xml:space="preserve" style="white-space: pre" font-family="Open Sans Hebrew" font-size="24" font-weight="bold" letter-spacing="0em"><tspan x="70.2857" y="1223.95">SDC </tspan><tspan x="122.809" y="1223.95">Glue</tspan></text>
</g>
</g>
<g id="InfoBoxSDCGlue_3" filter="url(#filter2_d_0_1)">
<rect id="ConnectorElement_4" x="431" y="471" width="150" height="30" fill="#9B9B9B"/>
<rect id="infobox_5" x="15" y="143" width="482" height="395" fill="#9B9B9B"/>
<g id="infobox_6">
<text fill="white" xml:space="preserve" style="white-space: pre" font-family="Open Sans Hebrew" font-size="24" letter-spacing="0em"><tspan x="358.279" y="187.21"> </tspan><tspan x="367.191" y="187.21">define </tspan><tspan x="446.719" y="187.21">the </tspan><tspan x="30.8404" y="220.21">scope, </tspan><tspan x="125.945" y="220.21">structure, </tspan><tspan x="257.87" y="220.21">and </tspan><tspan x="324.357" y="220.21">semantics </tspan><tspan x="460.782" y="220.21">of </tspan><tspan x="30.8404" y="253.21">information </tspan><tspan x="175.912" y="253.21">and </tspan><tspan x="231.054" y="253.21">functionalities </tspan><tspan x="401.18" y="253.21">offered </tspan><tspan x="30.8404" y="286.21">by </tspan><tspan x="74.8645" y="286.21">a </tspan><tspan x="105.435" y="286.21">certain </tspan><tspan x="199.991" y="286.21">class </tspan><tspan x="270.921" y="286.21">of </tspan><tspan x="310.773" y="286.21">devices. </tspan><tspan x="417.001" y="286.21">These </tspan><tspan x="30.8404" y="319.21">encompass </tspan><tspan x="242.331" y="319.21">parameter </tspan><tspan x="445.196" y="319.21">like </tspan><tspan x="30.8404" y="352.21">dependencies, </tspan><tspan x="257.506" y="352.21">remote </tspan><tspan x="403.899" y="352.21">control </tspan><tspan x="30.8404" y="385.21">commands, </tspan><tspan x="173.535" y="385.21">behavior </tspan><tspan x="284.19" y="385.21">in </tspan><tspan x="316.963" y="385.21">various </tspan><tspan x="410.86" y="385.21">states, </tspan><tspan x="30.8404" y="418.21">and </tspan><tspan x="110.115" y="418.21">networking </tspan><tspan x="272.827" y="418.21">requirements. </tspan><tspan x="468.235" y="418.21">It </tspan><tspan x="30.8404" y="451.21">provides </tspan><tspan x="145.258" y="451.21">a </tspan><tspan x="176.286" y="451.21">framework </tspan><tspan x="316.649" y="451.21">to </tspan><tspan x="357.309" y="451.21">adhere </tspan><tspan x="454.548" y="451.21">to, </tspan><tspan x="30.8404" y="484.21">enabling  </tspan><tspan x="156.42" y="484.21">devices </tspan><tspan x="253.663" y="484.21">to </tspan><tspan x="291.281" y="484.21">assume </tspan><tspan x="392.695" y="484.21">roles </tspan><tspan x="462.61" y="484.21">in </tspan><tspan x="30.8404" y="517.21">networked </tspan><tspan x="157.567" y="517.21">systems.</tspan></text>
<text fill="white" xml:space="preserve" style="white-space: pre" font-family="Open Sans Hebrew" font-size="24" letter-spacing="0em"><tspan x="30.8404" y="187.21">The </tspan><tspan x="228.401" y="187.21"> </tspan><tspan x="237.312" y="187.21">standards </tspan></text>
<text fill="white" xml:space="preserve" style="white-space: pre" font-family="Open Sans Hebrew" font-size="24" font-weight="bold" letter-spacing="0em"><tspan x="81.26" y="187.21">11073-1072X</tspan></text>
</g>
</g>
<g id="InfoBoxSDCGlue_4" filter="url(#filter3_d_0_1)">
<rect id="ConnectorElement_5" x="1385" y="646" width="118" height="30" fill="#9B9B9B"/>
<rect id="ConnectorElement_6" x="1384" y="783" width="118" height="30" fill="#9B9B9B"/>
<rect id="infobox_7" x="1431" y="634" width="482" height="355.499" fill="#9B9B9B"/>
<g id="infobox_8">
<text fill="white" xml:space="preserve" style="white-space: pre" font-family="Open Sans Hebrew" font-size="24" letter-spacing="0em"><tspan x="1442" y="671.843">The </tspan><tspan x="1442" y="704.843">are </tspan><tspan x="1486.81" y="704.843">a </tspan><tspan x="1508.35" y="704.843">sets </tspan><tspan x="1561.37" y="704.843">of </tspan><tspan x="1592.19" y="704.843">requirements </tspan><tspan x="1752.93" y="704.843">that </tspan><tspan x="1806.18" y="704.843">support </tspan><tspan x="1442" y="737.843">manufacturers </tspan><tspan x="1651.63" y="737.843">in </tspan><tspan x="1716.26" y="737.843">making </tspan><tspan x="1842.34" y="737.843">valid </tspan><tspan x="1442" y="770.843">assumptions </tspan><tspan x="1615.34" y="770.843">about </tspan><tspan x="1711.21" y="770.843">other </tspan><tspan x="1802.29" y="770.843">network </tspan><tspan x="1442" y="803.843">participants, </tspan><tspan x="1596.17" y="803.843">which </tspan><tspan x="1677.44" y="803.843">allows </tspan><tspan x="1763.2" y="803.843">to </tspan><tspan x="1801.82" y="803.843">perform </tspan><tspan x="1442" y="836.843">risk </tspan><tspan x="1510.07" y="836.843">management, </tspan><tspan x="1693.57" y="836.843">verification, </tspan><tspan x="1851.76" y="836.843">and </tspan><tspan x="1442" y="869.843">usability </tspan><tspan x="1543.18" y="869.843">engineering </tspan><tspan x="1684.2" y="869.843">for </tspan><tspan x="1724.78" y="869.843">the </tspan><tspan x="1769.61" y="869.843">safe </tspan><tspan x="1824.15" y="869.843">use </tspan><tspan x="1871.94" y="869.843">of </tspan><tspan x="1442" y="902.843">device </tspan><tspan x="1540.92" y="902.843">functions. </tspan><tspan x="1679.34" y="902.843">Is </tspan><tspan x="1725.23" y="902.843">also </tspan><tspan x="1798.35" y="902.843">specifies </tspan><tspan x="1442" y="935.843">requirements </tspan><tspan x="1619.47" y="935.843">for </tspan><tspan x="1676.82" y="935.843">the </tspan><tspan x="1738.44" y="935.843">allocation </tspan><tspan x="1871.94" y="935.843">of </tspan><tspan x="1442" y="968.843">responsibilities.</tspan></text>
<text fill="white" xml:space="preserve" style="white-space: pre" font-family="Open Sans Hebrew" font-size="24" font-weight="bold" letter-spacing="0em"><tspan x="1894.58" y="671.843"> </tspan></text>
<text fill="white" xml:space="preserve" style="white-space: pre" font-family="Open Sans Hebrew" font-size="24" font-weight="bold" letter-spacing="0em"><tspan x="1498.83" y="671.843">Participant </tspan><tspan x="1647.98" y="671.843">Key </tspan><tspan x="1707.09" y="671.843">Purposes </tspan><tspan x="1832.24" y="671.843">(PKP)</tspan></text>
</g>
</g>
<g id="InfoBoxDPWS" filter="url(#filter4_d_0_1)">
<rect id="ConnectorElement_7" x="582" y="1215" width="30" height="131.759" fill="#9B9B9B"/>
<rect id="infobox_9" x="199" y="1295.64" width="482" height="394.363" fill="#9B9B9B"/>
<g id="infobox_10">
<text fill="white" xml:space="preserve" style="white-space: pre" font-family="Open Sans Hebrew" font-size="24" letter-spacing="0em"><tspan x="390.742" y="1403.81"> </tspan><tspan x="401.469" y="1403.81">also </tspan><tspan x="457.57" y="1403.81">known </tspan><tspan x="543.578" y="1403.81">as </tspan><tspan x="671" y="1403.81">  </tspan><tspan x="219" y="1436.81">enables </tspan><tspan x="363.471" y="1436.81">the </tspan><tspan x="457.365" y="1436.81">foundation </tspan><tspan x="638.562" y="1436.81">for </tspan><tspan x="219" y="1469.81">interoperability </tspan><tspan x="401.908" y="1469.81">by </tspan><tspan x="439.691" y="1469.81">providing </tspan><tspan x="556.459" y="1469.81">the </tspan><tspan x="604.133" y="1469.81">ability </tspan><tspan x="219" y="1502.81">to </tspan><tspan x="256.253" y="1502.81">exchange </tspan><tspan x="377.459" y="1502.81">data </tspan><tspan x="441.642" y="1502.81">safely </tspan><tspan x="520.473" y="1502.81">and </tspan><tspan x="577.555" y="1502.81">discover </tspan><tspan x="219" y="1535.81">network </tspan><tspan x="328.836" y="1535.81">participants </tspan><tspan x="479.031" y="1535.81">in </tspan><tspan x="517.383" y="1535.81">a </tspan><tspan x="548.281" y="1535.81">distributed </tspan><tspan x="219" y="1568.81">network </tspan><tspan x="328.454" y="1568.81">via </tspan><tspan x="377.065" y="1568.81">web </tspan><tspan x="441.098" y="1568.81">services. </tspan><tspan x="553.786" y="1568.81">It </tspan><tspan x="586.132" y="1568.81">can </tspan><tspan x="642.805" y="1568.81">be </tspan><tspan x="219" y="1601.81">viewed </tspan><tspan x="312.228" y="1601.81">as </tspan><tspan x="351.807" y="1601.81">an </tspan><tspan x="394.691" y="1601.81">extension </tspan><tspan x="518.997" y="1601.81">of </tspan><tspan x="556.421" y="1601.81">DPWS </tspan><tspan x="638.562" y="1601.81">for </tspan><tspan x="219" y="1634.81">medical </tspan><tspan x="312.68" y="1634.81">purposes.  </tspan></text>
<text fill="white" xml:space="preserve" style="white-space: pre" font-family="Open Sans Hebrew" font-size="24" font-weight="bold" letter-spacing="0em"><tspan x="219" y="1337.81">ISO/IEEE </tspan><tspan x="366.285" y="1337.81">11073-20702: </tspan><tspan x="566.773" y="1337.81">&#x201c;Medical </tspan><tspan x="219" y="1370.81">Devices </tspan><tspan x="328.768" y="1370.81">Communication </tspan><tspan x="538.591" y="1370.81">Profile </tspan><tspan x="635.938" y="1370.81">for </tspan><tspan x="219" y="1403.81">Web </tspan><tspan x="282.297" y="1403.81">Services&#x201d;</tspan></text>
<text fill="white" xml:space="preserve" style="white-space: pre" font-family="Open Sans Hebrew" font-size="24" font-weight="bold" letter-spacing="0em"><tspan x="579.102" y="1403.81">MDPWS</tspan></text>
</g>
</g>
<g id="InfoBoxDPWS_2" filter="url(#filter5_d_0_1)">
<rect id="ConnectorElement_8" x="947" y="1216" width="34.5436" height="138.487" fill="#9B9B9B"/>
<rect id="infobox_11" x="714" y="1296" width="555" height="394" fill="#9B9B9B"/>
<g id="infobox_12">
<text fill="white" xml:space="preserve" style="white-space: pre" font-family="Open Sans Hebrew" font-size="24" letter-spacing="0em"><tspan x="939.148" y="1435.81"> </tspan><tspan x="957.496" y="1435.81">also </tspan><tspan x="1021.22" y="1435.81">known </tspan><tspan x="1114.85" y="1435.81">as  </tspan><tspan x="1257.46" y="1435.81"> </tspan><tspan x="737" y="1468.81">(Basic </tspan><tspan x="840.579" y="1468.81">Integrated </tspan><tspan x="995.604" y="1468.81">Clinical </tspan><tspan x="1113.18" y="1468.81">Environment </tspan><tspan x="737" y="1501.81">Protocol </tspan><tspan x="847.386" y="1501.81">Specification) </tspan><tspan x="1012.76" y="1501.81">provides </tspan><tspan x="1126.14" y="1501.81">a </tspan><tspan x="1156.14" y="1501.81">semantic </tspan><tspan x="737" y="1534.81">description </tspan><tspan x="871.574" y="1534.81">of </tspan><tspan x="903.351" y="1534.81">medical </tspan><tspan x="999.933" y="1534.81">device </tspan><tspan x="1080.25" y="1534.81">capabilities </tspan><tspan x="1214.64" y="1534.81">and </tspan><tspan x="737" y="1567.81">state </tspan><tspan x="805.569" y="1567.81">information </tspan><tspan x="951.647" y="1567.81">using </tspan><tspan x="1025.11" y="1567.81">a </tspan><tspan x="1051.8" y="1567.81">participant </tspan><tspan x="1186.35" y="1567.81">model </tspan><tspan x="737" y="1600.81">(MDIB) </tspan><tspan x="819.425" y="1600.81">and </tspan><tspan x="869.013" y="1600.81">communication/message </tspan><tspan x="1157.99" y="1600.81">model. </tspan><tspan x="1242.27" y="1600.81">It </tspan><tspan x="737" y="1633.81">establishes </tspan><tspan x="868.771" y="1633.81">a </tspan><tspan x="889.19" y="1633.81">common </tspan><tspan x="996.094" y="1633.81">language </tspan><tspan x="1105.2" y="1633.81">and </tspan><tspan x="1155.08" y="1633.81">structure </tspan><tspan x="737" y="1666.81">to </tspan><tspan x="766.227" y="1666.81">exchange </tspan><tspan x="879.406" y="1666.81">health-related </tspan><tspan x="1043.63" y="1666.81">information.</tspan></text>
<text fill="white" xml:space="preserve" style="white-space: pre" font-family="Open Sans Hebrew" font-size="24" font-weight="bold" letter-spacing="0em"><tspan x="737" y="1336.81">ISO/IEEE </tspan><tspan x="842.321" y="1336.81">11073-10207: </tspan><tspan x="1000.85" y="1336.81">&#x201c;Domain </tspan><tspan x="1112.19" y="1336.81">Information </tspan><tspan x="737" y="1369.81">and </tspan><tspan x="802.28" y="1369.81">Service </tspan><tspan x="907.92" y="1369.81">Model </tspan><tspan x="1001.93" y="1369.81">for </tspan><tspan x="1056.81" y="1369.81">Service-Oriented </tspan><tspan x="737" y="1402.81">Point-of-Care </tspan><tspan x="989.716" y="1402.81">Medical </tspan><tspan x="1177.98" y="1402.81">Device </tspan><tspan x="737" y="1435.81">Communication&#x201d;</tspan><tspan x="1176.34" y="1435.81">BICEPS</tspan></text>
</g>
</g>
<g id="left_center" filter="url(#filter6_d_0_1)">
<rect id="background" x="1913" y="506" width="99.4499" height="482" transform="rotate(90 1913 506)" fill="#C4C4C4"/>
<text id="description" transform="translate(1431 506.99)" fill="black" xml:space="preserve" style="white-space: pre" font-family="Open Sans Hebrew" font-size="30" letter-spacing="0em"><tspan x="52.665" y="40.8631">Satety, Trust &#38; Participants </tspan><tspan x="132.484" y="81.8631">Responsibilities</tspan></text>
</g>
<g id="left_top" filter="url(#filter7_d_0_1)">
<rect id="background_2" x="492" y="20" width="100.444" height="477" transform="rotate(90 492 20)" fill="#C4C4C4"/>
<text id="description_2" transform="translate(15 20)" fill="black" xml:space="preserve" style="white-space: pre" font-family="Open Sans Hebrew" font-size="30" letter-spacing="0em"><tspan x="81.8643" y="41.3604">Device Specializations &#x2028;</tspan><tspan x="162.606" y="82.3604">(DevSpecs)</tspan></text>
</g>
<g id="InfoBoxSDCGlue_5" filter="url(#filter8_d_0_1)">
<rect id="infobox_13" x="1431" y="146" width="482" height="326" fill="#9B9B9B"/>
<g id="infobox_14">
<text fill="white" xml:space="preserve" style="white-space: pre" font-family="Open Sans Hebrew" font-size="24" letter-spacing="0em"><tspan x="1649.89" y="280.21">specifies </tspan><tspan x="1787.31" y="280.21">how </tspan><tspan x="1876.43" y="280.21">to </tspan><tspan x="1446.84" y="313.21">represent </tspan><tspan x="1580.61" y="313.21">device </tspan><tspan x="1676.15" y="313.21">components </tspan><tspan x="1840.89" y="313.21">in </tspan><tspan x="1886.06" y="313.21">a </tspan><tspan x="1446.84" y="346.21">network, </tspan><tspan x="1552.99" y="346.21">defines </tspan><tspan x="1643.01" y="346.21">the </tspan><tspan x="1687.69" y="346.21">use </tspan><tspan x="1735.31" y="346.21">of </tspan><tspan x="1765.92" y="346.21">term </tspan><tspan x="1827.99" y="346.21">codes, </tspan><tspan x="1446.84" y="379.21">and </tspan><tspan x="1495.98" y="379.21">outlines </tspan><tspan x="1591.83" y="379.21">communication </tspan><tspan x="1772.88" y="379.21">rules, </tspan><tspan x="1840.6" y="379.21">but </tspan><tspan x="1884.87" y="379.21">it </tspan><tspan x="1446.84" y="412.21">doesn&#39;t </tspan><tspan x="1556.09" y="412.21">provide </tspan><tspan x="1667.96" y="412.21">detailed </tspan><tspan x="1784.9" y="412.21">rules </tspan><tspan x="1866.99" y="412.21">for </tspan><tspan x="1446.84" y="445.21">specific </tspan><tspan x="1535.81" y="445.21">devices.</tspan></text>
<text fill="white" xml:space="preserve" style="white-space: pre" font-family="Open Sans Hebrew" font-size="24" font-weight="bold" letter-spacing="0em"><tspan x="1446.84" y="181.21">IEEE </tspan><tspan x="1571.11" y="181.21">11073-10720: </tspan><tspan x="1798.76" y="181.21">&#x201c;Module </tspan><tspan x="1446.84" y="214.21">Specifications </tspan><tspan x="1625.03" y="214.21">for </tspan><tspan x="1672.18" y="214.21">a </tspan><tspan x="1698.77" y="214.21">Service-Oriented </tspan><tspan x="1446.84" y="247.21">Medical </tspan><tspan x="1623.42" y="247.21">Device </tspan><tspan x="1785.94" y="247.21">Exchange </tspan><tspan x="1446.84" y="280.21">Architecture&#x201d; </tspan></text>
</g>
</g>
<g id="top_right" filter="url(#filter9_d_0_1)">
<rect id="background_3" x="1908" y="20" width="100.444" height="477" transform="rotate(90 1908 20)" fill="#C4C4C4"/>
<text id="description_3" transform="translate(1431 20)" fill="black" xml:space="preserve" style="white-space: pre" font-family="Open Sans Hebrew" font-size="30" letter-spacing="0em"><tspan x="68.7979" y="41.3604">Modular Specializations &#10;</tspan><tspan x="157.67" y="82.3604">(ModSpecs)</tspan></text>
</g>
<g id="left_top_2" filter="url(#filter10_d_0_1)">
<rect id="background_4" x="492" y="728" width="100.444" height="477" transform="rotate(90 492 728)" fill="#C4C4C4"/>
<text id="description_4" transform="translate(15 728)" fill="black" xml:space="preserve" style="white-space: pre" font-family="Open Sans Hebrew" font-size="30" letter-spacing="0em"><tspan x="130.409" y="61.8604">Core Standards</tspan></text>
</g>
<g id="ChurchWindowSolo" filter="url(#filter11_d_0_1)">
<g id="DevSpecs">
<path id="1" d="M542.213 552C542.213 483.777 560.144 416.659 594.341 356.874L778.991 454.437C761.892 484.329 752.927 517.888 752.927 552H542.213Z" fill="#F0E46C"/>
<path id="1 (Stroke)" fill-rule="evenodd" clip-rule="evenodd" d="M595.068 359.381C561.924 417.937 544.41 483.473 544.087 550.12H751.067C751.384 516.968 760.084 484.39 776.411 455.197L595.068 359.381ZM594.341 356.874C560.458 416.11 542.544 482.544 542.218 550.12C542.215 550.747 542.213 551.373 542.213 552H752.927C752.927 518.509 761.569 485.55 778.066 456.072C778.371 455.526 778.68 454.981 778.991 454.437L594.341 356.874Z" fill="black"/>
<path id="2" d="M599.56 348.016C635.309 289.077 685.97 239.771 746.842 204.674L855.241 378.337C824.805 395.885 799.475 420.538 781.6 450.008L599.56 348.016Z" fill="#F0E46C"/>
<path id="2 (Stroke)" fill-rule="evenodd" clip-rule="evenodd" d="M599.56 348.016L781.6 450.008C799.157 421.062 823.907 396.763 853.623 379.28C854.16 378.963 854.7 378.649 855.241 378.337L746.842 204.674C686.523 239.452 636.23 288.182 600.537 346.413C600.21 346.947 599.884 347.481 599.56 348.016ZM602.172 347.328L780.947 447.491C798.597 418.967 823.202 395.012 852.629 377.687L746.215 207.206C686.876 241.756 637.387 289.903 602.172 347.328Z" fill="black"/>
<path id="3" d="M755.992 199.548C817.762 165.932 887.365 147.857 958.345 147L960.992 349.5C925.503 349.929 890.701 358.966 859.816 375.774L755.992 199.548Z" fill="#F0E46C"/>
<path id="3 (Stroke)" fill-rule="evenodd" clip-rule="evenodd" d="M757.639 198.656C757.089 198.952 756.54 199.249 755.992 199.548L859.816 375.774C890.555 359.045 925.175 350.014 960.491 349.507C960.658 349.504 960.825 349.502 960.992 349.5L958.345 147C958.009 147.004 957.674 147.008 957.339 147.013C957.051 147.017 956.764 147.022 956.476 147.027C886.774 148.165 818.454 165.905 757.639 198.656ZM758.592 200.275L860.511 373.267C890.724 357.151 924.564 348.361 959.099 347.651L956.501 148.906C887.122 150.04 819.123 167.692 758.592 200.275Z" fill="black"/>
<path id="4" d="M968.936 147C1039.92 147.857 1109.52 165.932 1171.29 199.548L1067.46 375.774C1036.58 358.966 1001.78 349.929 966.288 349.5L968.936 147Z" fill="#F0E46C"/>
<path id="4 (Stroke)" fill-rule="evenodd" clip-rule="evenodd" d="M1168.69 200.275C1108.16 167.692 1040.16 150.04 970.78 148.906L968.181 347.651C1002.72 348.361 1036.56 357.151 1066.77 373.267L1168.69 200.275ZM1169.64 198.656C1108.83 165.905 1040.51 148.166 970.805 147.027C970.517 147.022 970.23 147.017 969.942 147.013C969.607 147.008 969.271 147.004 968.936 147L966.288 349.5C966.458 349.502 966.627 349.504 966.797 349.507C1002.11 350.015 1036.73 359.046 1067.46 375.774L1171.29 199.548C1170.74 199.25 1170.19 198.952 1169.64 198.656Z" fill="black"/>
<path id="5" d="M1180.44 204.674C1241.31 239.771 1291.97 289.077 1327.72 348.017L1145.68 450.008C1127.81 420.539 1102.48 395.886 1072.04 378.337L1180.44 204.674Z" fill="#F0E46C"/>
<path id="5 (Stroke)" fill-rule="evenodd" clip-rule="evenodd" d="M1181.07 207.206L1074.65 377.687C1104.08 395.012 1128.68 418.967 1146.33 447.491L1325.11 347.329C1289.89 289.903 1240.4 241.756 1181.07 207.206ZM1326.74 346.413C1291.05 288.182 1240.76 239.452 1180.44 204.674L1072.04 378.337C1072.58 378.649 1073.12 378.963 1073.66 379.28C1103.37 396.763 1128.12 421.062 1145.68 450.008C1145.68 450.008 1145.68 450.008 1145.68 450.008L1327.72 348.017C1327.4 347.481 1327.07 346.947 1326.74 346.413Z" fill="black"/>
<path id="6" d="M1332.94 356.874C1367.14 416.659 1385.07 483.777 1385.07 552L1174.35 552C1174.35 517.888 1165.39 484.329 1148.29 454.437L1332.94 356.874Z" fill="#F0E46C"/>
<path id="6 (Stroke)" fill-rule="evenodd" clip-rule="evenodd" d="M1332.21 359.381L1150.87 455.197C1167.2 484.39 1175.9 516.968 1176.21 550.121L1383.19 550.121C1382.87 483.473 1365.36 417.937 1332.21 359.381ZM1385.06 550.121C1384.74 482.545 1366.82 416.11 1332.94 356.874L1148.29 454.437C1148.6 454.981 1148.91 455.526 1149.21 456.072C1165.71 485.55 1174.35 518.509 1174.35 552L1385.07 552C1385.07 551.373 1385.07 550.747 1385.06 550.121Z" fill="black"/>
<path id="modspec_bg" d="M1161.58 552C1161.58 501.919 1140.77 453.89 1103.75 418.477C1066.72 383.065 1016.5 363.171 964.141 363.171C911.779 363.171 861.56 383.065 824.534 418.477C787.508 453.89 766.707 501.919 766.707 552L964.141 552H1161.58Z" fill="#F0C47C"/>
<path id="modspec_bg (Stroke)" fill-rule="evenodd" clip-rule="evenodd" d="M1159.7 550.12C1159.18 501.248 1138.66 454.464 1102.46 419.839C1065.79 384.768 1016.04 365.05 964.141 365.05C912.245 365.05 862.491 384.768 825.822 419.839C789.62 454.464 769.099 501.248 768.586 550.12L1159.7 550.12ZM1161.57 550.12C1161.05 500.719 1140.31 453.447 1103.75 418.477C1066.72 383.065 1016.5 363.171 964.141 363.171C911.779 363.171 861.56 383.065 824.534 418.477C787.972 453.447 767.23 500.719 766.717 550.12C766.71 550.747 766.707 551.373 766.707 552L1161.58 552C1161.58 551.373 1161.57 550.747 1161.57 550.12Z" fill="black"/>
<text id="..." fill="black" xml:space="preserve" style="white-space: pre" font-family="Open Sans Hebrew" font-size="29" letter-spacing="0em"><tspan x="1262.4" y="488.61">...</tspan></text>
<text id="Modular Specializations [P] 10720" fill="black" xml:space="preserve" style="white-space: pre" font-family="Open Sans Hebrew" font-size="29" letter-spacing="0em"><tspan x="906.821" y="444.09">Modular </tspan><tspan x="864.95" y="483.09">Specializations&#10;</tspan><tspan x="900.605" y="532.09">[P] 10720</tspan></text>
<text id="HF Device [P] 10721" fill="black" xml:space="preserve" style="white-space: pre" font-family="Open Sans Hebrew" font-size="29" letter-spacing="0em"><tspan x="590.626" y="464.11">HF Device&#10;</tspan><tspan x="593.741" y="513.11">[P] 10721</tspan></text>
<text id="Endo Camera [P] 10722" fill="black" xml:space="preserve" style="white-space: pre" font-family="Open Sans Hebrew" font-size="29" letter-spacing="0em"><tspan x="630.505" y="329.725">Endo Camera&#10;</tspan><tspan x="658.217" y="378.725">[P] 10722</tspan></text>
<text id="Endo Light [P] 10723" fill="black" xml:space="preserve" style="white-space: pre" font-family="Open Sans Hebrew" font-size="29" letter-spacing="0em"><tspan x="798.748" y="221.654">Endo Light&#10;</tspan><tspan x="806.791" y="270.654">[P] 10723</tspan></text>
<text id="Insufflator [P] 10724" fill="black" xml:space="preserve" style="white-space: pre" font-family="Open Sans Hebrew" font-size="29" letter-spacing="0em"><tspan x="983.326" y="221.654">Insufflator&#10;</tspan><tspan x="989.939" y="270.654">[P] 10724</tspan></text>
<text id="Pump [P] 10725" fill="black" xml:space="preserve" style="white-space: pre" font-family="Open Sans Hebrew" font-size="29" letter-spacing="0em"><tspan x="1148.94" y="329.725">Pump&#10;</tspan><tspan x="1125.43" y="378.725">[P] 10725</tspan></text>
</g>
<g id="PKP">
<rect id="alertPKPBackground" x="830.415" y="577" width="269.064" height="116.209" fill="#43941C" fill-opacity="0.69" stroke="black" stroke-width="2"/>
<text id="Alert PKP [P] 10702" fill="black" xml:space="preserve" style="white-space: pre" font-family="Open Sans Hebrew" font-size="29" letter-spacing="0em"><tspan x="902.755" y="622.75">Alert PKP&#10;</tspan><tspan x="901.396" y="671.75">[P] 10702</tspan></text>
<rect id="exControlPKPBackground" x="1114.94" y="578.791" width="269.064" height="116.209" fill="#43941C" fill-opacity="0.69" stroke="black" stroke-width="2"/>
<text id="Ext. Control PKP [P] 10703" fill="black" xml:space="preserve" style="white-space: pre" font-family="Open Sans Hebrew" font-size="29" letter-spacing="0em"><tspan x="1132.99" y="622.75">Ext. Control PKP&#10;</tspan><tspan x="1178.33" y="671.75">[P] 10703</tspan></text>
<rect id="metricPKPBackground" x="544.932" y="577" width="269.064" height="116.209" fill="#43941C" fill-opacity="0.69" stroke="black" stroke-width="2"/>
<text id="Metric PKP 10701" fill="black" xml:space="preserve" style="white-space: pre" font-family="Open Sans Hebrew" font-size="29" letter-spacing="0em"><tspan x="607.54" y="620.75">Metric PKP&#10;</tspan><tspan x="639.047" y="669.75">10701</tspan></text>
<rect id="basePKPBackground" x="544" y="710" width="839.068" height="119" fill="#43941C" fill-opacity="0.42" stroke="black" stroke-width="2"/>
<text id="Base Participant Key Purposes 10700" fill="black" xml:space="preserve" style="white-space: pre" font-family="Open Sans Hebrew" font-size="29" letter-spacing="0em"><tspan x="759.089" y="756.75">Base Participant Key Purposes&#10;</tspan><tspan x="922.045" y="805.75">10700</tspan></text>
</g>
<g id="Core">
<g id="1_2">
<rect id="Rectangle 5" x="544" y="851" width="837.918" height="119" fill="#004B87" stroke="black" stroke-width="2"/>
<text id="Architecture &#38; Protocol 20701" transform="translate(543 850)" fill="white" xml:space="preserve" style="white-space: pre" font-family="Open Sans Hebrew" font-size="29" letter-spacing="0em"><tspan x="259.645" y="45.7502">Architecture &#38; Protocol &#10;</tspan><tspan x="379.511" y="94.7502">20701</tspan></text>
</g>
<g id="2_2">
<rect id="Rectangle 5_2" x="841.366" y="985" width="251.627" height="252" fill="#004B87" stroke="black" stroke-width="2"/>
<text id="Domain Information &#38; Service Model 10207" transform="translate(838.993 984)" fill="white" xml:space="preserve" style="white-space: pre" font-family="Open Sans Hebrew" font-size="29" letter-spacing="0em"><tspan x="73.4112" y="73.8054">Domain </tspan><tspan x="31.9502" y="112.805">Information &#38; </tspan><tspan x="32.5733" y="151.805">Service Model&#10;</tspan><tspan x="85.4048" y="200.805">10207</tspan></text>
</g>
<g id="3_2">
<rect id="Rectangle 5_3" x="544.421" y="985" width="252.579" height="252" fill="#004B87" stroke="black" stroke-width="2"/>
<text id="Medical DPWS 20702" transform="translate(543 984)" fill="white" xml:space="preserve" style="white-space: pre" font-family="Open Sans Hebrew" font-size="29" letter-spacing="0em"><tspan x="71.1689" y="94.0241">Medical &#x2028;</tspan><tspan x="82.9077" y="133.024">DPWS &#10;</tspan><tspan x="85.8813" y="182.024">20702</tspan></text>
</g>
<g id="4_2">
<path id="Rectangle 5_4" d="M1133.99 987H1382.48V1236.56H1133.99V987Z" fill="#004B87" stroke="black" stroke-width="2"/>
<text id="Coding System 10101" transform="translate(1132.99 986)" fill="white" xml:space="preserve" style="white-space: pre" font-family="Open Sans Hebrew" font-size="29" letter-spacing="0em"><tspan x="25.2971" y="112.529">Coding System&#10;</tspan><tspan x="83.8352" y="161.529">10101</tspan></text>
</g>
</g>
<text id="IEEE 11073-" fill="black" xml:space="preserve" style="white-space: pre" font-family="Open Sans Hebrew" font-size="55" font-weight="bold" letter-spacing="0em"><tspan x="530.593" y="75.8367">IEEE 11073-</tspan></text>
</g>
<g id="SDC_Logo_transparent 1">
<g id="Group">
<path id="Vector" d="M1379.54 21.8327H1188.16C1175.22 21.8327 1169.69 26.5222 1169.69 39.0205V78.6373C1169.69 90.9446 1175.05 95.8251 1188.16 95.8251H1379.56C1391.65 95.8251 1398.03 90.5203 1398.03 78.6373V39.0205C1398.01 26.5222 1391.63 21.8327 1379.54 21.8327ZM1252.13 36.941H1280.74C1285.01 36.941 1288.99 37.3866 1292.68 38.299C1296.35 39.2115 1299.56 40.5483 1302.25 42.352C1304.94 44.1556 1307.05 46.4049 1308.57 49.121C1310.09 51.8371 1310.86 54.9988 1310.86 58.6485C1310.86 61.8527 1310.24 64.8022 1309 67.5183C1307.76 70.2344 1305.88 72.5685 1303.38 74.542C1300.88 76.5154 1297.74 78.0644 1294.01 79.189C1290.27 80.3137 1285.85 80.8866 1280.76 80.8866H1252.13V36.941ZM1187.65 66.3088H1201.77C1201.77 67.7942 1202.17 69.0461 1202.98 70.0646C1203.8 71.0832 1204.86 71.932 1206.19 72.5473C1207.51 73.1839 1209.07 73.6507 1210.89 73.969C1212.68 74.2661 1214.54 74.4146 1216.46 74.4146C1217.76 74.4146 1219.15 74.351 1220.65 74.2024C1222.14 74.0539 1223.53 73.7781 1224.83 73.3749C1226.13 72.9717 1227.22 72.3988 1228.08 71.6773C1228.95 70.9559 1229.38 70.0434 1229.38 68.94C1229.38 67.7517 1228.8 66.7756 1227.67 66.0542C1226.52 65.3115 1225.02 64.6961 1223.17 64.2081C1221.31 63.72 1219.19 63.2744 1216.84 62.9137C1214.49 62.5529 1212.1 62.1285 1209.69 61.6829C1207.21 61.2798 1204.8 60.7705 1202.45 60.1763C1200.1 59.5822 1197.99 58.8183 1196.13 57.8634C1194.27 56.9298 1192.77 55.7415 1191.62 54.3198C1190.47 52.8981 1189.91 51.2005 1189.91 49.1846C1189.91 46.9354 1190.64 44.962 1192.09 43.3068C1193.54 41.6517 1195.44 40.2512 1197.79 39.1478C1200.14 38.0444 1202.81 37.2168 1205.78 36.6863C1208.75 36.1559 1211.72 35.88 1214.71 35.88C1218.17 35.88 1221.5 36.1346 1224.7 36.6439C1227.89 37.1532 1230.73 37.9807 1233.2 39.1266C1235.68 40.2724 1237.65 41.7366 1239.1 43.519C1240.55 45.3015 1241.28 47.4659 1241.28 50.0122H1227.14C1227.01 48.6966 1226.6 47.6144 1225.88 46.7444C1225.17 45.8744 1224.21 45.1954 1223.04 44.7073C1221.86 44.2193 1220.52 43.8585 1219 43.6676C1217.48 43.4554 1215.82 43.3705 1214.02 43.3705C1212.85 43.3705 1211.68 43.4554 1210.5 43.6251C1209.33 43.7949 1208.26 44.0707 1207.3 44.4951C1206.34 44.8983 1205.55 45.4288 1204.93 46.0442C1204.31 46.6595 1204.01 47.4446 1204.01 48.3783C1204.01 49.2483 1204.26 49.9273 1204.76 50.479C1205.25 51.0095 1206.23 51.4976 1207.68 51.9644C1209.13 52.41 1211.14 52.8768 1213.73 53.3224C1216.29 53.7681 1219.66 54.341 1223.81 55.0412C1225.04 55.211 1226.75 55.5081 1228.95 55.9324C1231.15 56.3568 1233.33 57.0571 1235.51 57.9907C1237.67 58.9456 1239.55 60.1976 1241.13 61.7678C1242.71 63.3381 1243.5 65.3751 1243.5 67.8366C1243.5 69.8524 1242.9 71.7198 1241.72 73.4385C1240.55 75.1573 1238.8 76.6427 1236.47 77.8946C1234.14 79.1466 1231.26 80.1227 1227.82 80.8229C1224.38 81.5232 1220.41 81.8627 1215.88 81.8627C1212.23 81.8627 1208.69 81.5656 1205.25 80.9715C1201.81 80.3773 1198.78 79.4437 1196.15 78.1705C1193.52 76.8973 1191.43 75.2846 1189.87 73.3112C1188.33 71.3378 1187.59 69.0037 1187.65 66.3088ZM1376.98 71.4015C1375.42 73.6083 1373.39 75.4968 1370.85 77.0671C1368.31 78.6161 1365.34 79.8044 1361.92 80.632C1358.52 81.4595 1354.77 81.8627 1350.69 81.8627C1345.6 81.8627 1341.03 81.2685 1336.98 80.1015C1332.92 78.9344 1329.5 77.3217 1326.7 75.2634C1323.93 73.2051 1321.77 70.8073 1320.3 68.0276C1318.8 65.2478 1318.07 62.2771 1318.07 59.0729C1318.07 55.7839 1318.82 52.7495 1320.3 49.9273C1321.79 47.1263 1323.93 44.6649 1326.7 42.5642C1329.5 40.4634 1332.92 38.8295 1336.98 37.6412C1341.03 36.4529 1345.6 35.8588 1350.69 35.8588C1354.34 35.8588 1357.8 36.1983 1361.04 36.8985C1364.29 37.5988 1367.22 38.6173 1369.78 39.9542C1372.34 41.291 1374.48 42.9461 1376.14 44.8983C1377.81 46.8717 1378.88 49.121 1379.3 51.6673H1365.19C1364.93 50.5639 1364.38 49.5454 1363.52 48.6117C1362.65 47.6993 1361.58 46.8717 1360.28 46.1715C1358.97 45.4712 1357.5 44.9407 1355.85 44.5376C1354.21 44.1556 1352.5 43.9434 1350.71 43.9434C1347.42 43.9434 1344.64 44.3678 1342.34 45.1954C1340.05 46.0442 1338.19 47.1688 1336.76 48.5693C1335.33 49.991 1334.31 51.6037 1333.64 53.4073C1333 55.211 1332.66 57.0783 1332.66 59.0093C1332.66 60.8554 1332.98 62.659 1333.64 64.399C1334.31 66.139 1335.33 67.7093 1336.76 69.1098C1338.19 70.5103 1340.05 71.6137 1342.34 72.4624C1344.62 73.3112 1347.42 73.7144 1350.71 73.7144C1355.17 73.7144 1358.65 72.802 1361.15 70.9983C1363.65 69.1946 1365.19 66.8181 1365.74 63.8473H1379.86C1379.5 66.712 1378.54 69.1946 1376.98 71.4015Z" fill="black"/>
<path id="Vector_2" d="M1291.14 69.8312C1292.68 68.7915 1293.92 67.4334 1294.86 65.7359C1295.78 64.0595 1296.25 62.0012 1296.25 59.5822C1296.25 57.3754 1295.93 55.3595 1295.27 53.5771C1294.62 51.7946 1293.56 50.2668 1292.06 48.9937C1290.57 47.7205 1288.6 46.7444 1286.17 46.0654C1283.71 45.3863 1280.7 45.0468 1277.11 45.0468H1266.71V72.7383H1279.72C1281.83 72.7383 1283.86 72.5049 1285.85 72.0593C1287.83 71.6349 1289.58 70.8922 1291.14 69.8312Z" fill="black"/>
</g>
</g>
<g id="SDCReadyBox">
<rect id="Rectangle 6" x="28" y="1766" width="988" height="463" fill="#9B9B9B"/>
<text id="What does or means?" fill="white" xml:space="preserve" style="white-space: pre" font-family="Open Sans Hebrew" font-size="32" font-weight="bold" letter-spacing="0em"><tspan x="44" y="1818.31">What does                                        or                       means?</tspan></text>
<g id="When a medical device is labeled as , it signifies that it possesses the inherent capability to fully support the SDC framework, and first implementations using the SDC protocol have been performed. The label signifies full support of the SDC standards. The labels are self-declared - how far and to what extent devices support the SDC protocol must be explained by the self-declaration. SDC ready represents the commitment of the device&#226;&#128;&#153;s manufacturer to embrace and integrate the SDC technology in the future. The labels SDC ready and SDC are issued by the OR.NET association by means of license agreements. It is important to note that achieving 100% SDC capability may not be attainable right now due to the non-final SDC standards.">
<text fill="white" xml:space="preserve" style="white-space: pre" font-family="Open Sans Hebrew" font-size="24" font-weight="bold" letter-spacing="0em"><tspan x="584.946" y="1877.43">          </tspan><tspan x="959.711" y="2009.43">SDC </tspan><tspan x="48" y="2042.43">ready</tspan></text>
<text fill="white" xml:space="preserve" style="white-space: pre" font-family="Open Sans Hebrew" font-size="24" letter-spacing="0em"><tspan x="647.656" y="1877.43">, </tspan><tspan x="659.809" y="1877.43">it </tspan><tspan x="680.635" y="1877.43">signifies </tspan><tspan x="777.492" y="1877.43">that </tspan><tspan x="828.833" y="1877.43">it </tspan><tspan x="849.659" y="1877.43">possesses </tspan><tspan x="969.297" y="1877.43">the </tspan><tspan x="48" y="1910.43">inherent </tspan><tspan x="154.476" y="1910.43">capability </tspan><tspan x="271.78" y="1910.43">to </tspan><tspan x="305.716" y="1910.43">fully </tspan><tspan x="363.77" y="1910.43">support </tspan><tspan x="463.121" y="1910.43">the </tspan><tspan x="510.769" y="1910.43">SDC </tspan><tspan x="567.534" y="1910.43">framework, </tspan><tspan x="707.056" y="1910.43">and </tspan><tspan x="760.821" y="1910.43">first </tspan><tspan x="815.688" y="1910.43">implementations </tspan><tspan x="48" y="1943.43">using </tspan><tspan x="114.381" y="1943.43">the </tspan><tspan x="157.325" y="1943.43">SDC </tspan><tspan x="209.386" y="1943.43">protocol </tspan><tspan x="309.635" y="1943.43">have </tspan><tspan x="369.477" y="1943.43">been </tspan><tspan x="432.132" y="1943.43">performed. </tspan><tspan x="565.732" y="1943.43">The </tspan><tspan x="613.481" y="1943.43">label      </tspan><tspan x="779.511" y="1943.43">signifies </tspan><tspan x="876.337" y="1943.43">full </tspan><tspan x="917.594" y="1943.43">support </tspan><tspan x="48" y="1976.43">of </tspan><tspan x="82.6367" y="1976.43">the </tspan><tspan x="131.336" y="1976.43">SDC </tspan><tspan x="189.152" y="1976.43">standards. </tspan><tspan x="319.602" y="1976.43">The </tspan><tspan x="373.105" y="1976.43">labels </tspan><tspan x="450.234" y="1976.43">are </tspan><tspan x="498.863" y="1976.43">self-declared </tspan><tspan x="654.742" y="1976.43">- </tspan><tspan x="674.473" y="1976.43">how </tspan><tspan x="734.398" y="1976.43">far </tspan><tspan x="777.684" y="1976.43">and </tspan><tspan x="832.5" y="1976.43">to </tspan><tspan x="867.488" y="1976.43">what </tspan><tspan x="934.75" y="1976.43">extent </tspan><tspan x="48" y="2009.43">devices </tspan><tspan x="142.161" y="2009.43">support </tspan><tspan x="242.11" y="2009.43">the </tspan><tspan x="290.357" y="2009.43">SDC </tspan><tspan x="347.72" y="2009.43">protocol </tspan><tspan x="453.271" y="2009.43">must </tspan><tspan x="521.815" y="2009.43">be </tspan><tspan x="561.553" y="2009.43">explained </tspan><tspan x="682.315" y="2009.43">by </tspan><tspan x="720.671" y="2009.43">the </tspan><tspan x="768.918" y="2009.43">self-declaration. </tspan><tspan x="116.438" y="2042.43"> </tspan><tspan x="128.739" y="2042.43">represents </tspan><tspan x="261.884" y="2042.43">the </tspan><tspan x="310.889" y="2042.43">commitment </tspan><tspan x="467.378" y="2042.43">of </tspan><tspan x="502.32" y="2042.43">the </tspan><tspan x="551.325" y="2042.43">device&#x2019;s </tspan><tspan x="650.322" y="2042.43">manufacturer </tspan><tspan x="817.006" y="2042.43">to </tspan><tspan x="852.3" y="2042.43">embrace </tspan><tspan x="963.18" y="2042.43">and </tspan><tspan x="48" y="2075.43">integrate </tspan><tspan x="155.273" y="2075.43">the </tspan><tspan x="198.211" y="2075.43">SDC </tspan><tspan x="250.266" y="2075.43">technology </tspan><tspan x="379.688" y="2075.43">in </tspan><tspan x="406.734" y="2075.43">the </tspan><tspan x="449.672" y="2075.43">future. </tspan><tspan x="525.445" y="2075.43">&#10;</tspan><tspan x="48" y="2108.43">&#10;</tspan><tspan x="48" y="2141.43">The </tspan><tspan x="99.5519" y="2141.43">labels </tspan><tspan x="309.544" y="2141.43">and</tspan><tspan x="418.741" y="2141.43">are </tspan><tspan x="465.418" y="2141.43">issued </tspan><tspan x="547.345" y="2141.43">by </tspan><tspan x="584.201" y="2141.43">the </tspan><tspan x="630.949" y="2141.43">OR.NET </tspan><tspan x="725.672" y="2141.43">association </tspan><tspan x="861.107" y="2141.43">by </tspan><tspan x="897.964" y="2141.43">means </tspan><tspan x="983.359" y="2141.43">of  </tspan><tspan x="48" y="2174.43">license </tspan><tspan x="133.915" y="2174.43">agreements. </tspan><tspan x="283.276" y="2174.43">It </tspan><tspan x="307.691" y="2174.43">is </tspan><tspan x="334.427" y="2174.43">important </tspan><tspan x="456.155" y="2174.43">to </tspan><tspan x="488.375" y="2174.43">note </tspan><tspan x="548.814" y="2174.43">that </tspan><tspan x="603.112" y="2174.43">achieving </tspan><tspan x="717.387" y="2174.43">100% </tspan><tspan x="787.576" y="2174.43">SDC </tspan><tspan x="842.624" y="2174.43">capability </tspan><tspan x="958.211" y="2174.43">may </tspan><tspan x="48" y="2207.43">not </tspan><tspan x="91.9688" y="2207.43">be </tspan><tspan x="126.398" y="2207.43">attainable </tspan><tspan x="244.758" y="2207.43">right </tspan><tspan x="303.234" y="2207.43">now </tspan><tspan x="357.398" y="2207.43">due </tspan><tspan x="406.57" y="2207.43">to </tspan><tspan x="435.797" y="2207.43">the </tspan><tspan x="478.734" y="2207.43">non-final </tspan><tspan x="585.07" y="2207.43">SDC </tspan><tspan x="637.125" y="2207.43">standards.</tspan></text>
<text fill="white" xml:space="preserve" style="white-space: pre" font-family="Open Sans Hebrew" font-size="24" letter-spacing="0em"><tspan x="48" y="1877.43">When </tspan><tspan x="119.451" y="1877.43">a </tspan><tspan x="139.081" y="1877.43">medical </tspan><tspan x="232.797" y="1877.43">device </tspan><tspan x="310.248" y="1877.43">is </tspan><tspan x="334.027" y="1877.43">labeled </tspan><tspan x="422.188" y="1877.43">as                      </tspan></text>
<text fill="white" xml:space="preserve" style="white-space: pre" font-family="Open Sans Hebrew" font-size="24" font-weight="bold" letter-spacing="0em"><tspan x="704.621" y="1943.43">            </tspan><tspan x="174.729" y="2141.43">SDC </tspan><tspan x="231.062" y="2141.43">ready </tspan><tspan x="352.364" y="2141.43"> </tspan><tspan x="362.408" y="2141.43">SDC </tspan></text>
</g>
</g>
<g id="sdc_ready_inline_transp 2">
<g id="Group_2">
<path id="Vector_3" d="M550.618 1851.14C549.477 1850.86 548.313 1850.79 547.142 1850.79C533.339 1850.8 519.533 1850.79 505.73 1850.79C491.927 1850.79 478.121 1850.79 464.318 1850.79C463.265 1850.79 462.223 1850.85 461.184 1851.03C458.507 1851.48 456.897 1852.93 456.301 1855.46C456.088 1856.37 456.01 1857.29 456.013 1858.22C456.02 1863.88 456.017 1869.53 456.013 1875.18C456.013 1875.99 456.047 1876.8 456.132 1877.61C456.433 1880.46 458.007 1882.23 460.808 1882.85C461.837 1883.08 462.879 1883.18 463.928 1883.18C491.693 1883.18 519.462 1883.18 547.227 1883.18C548.161 1883.18 549.085 1883.12 550.002 1882.94C552.536 1882.47 554.353 1881.13 555.101 1878.58C555.409 1877.53 555.49 1876.44 555.49 1875.36C555.501 1870.75 555.497 1866.14 555.49 1861.54C555.487 1859.96 555.514 1858.38 555.392 1856.8C555.169 1853.84 553.507 1851.84 550.618 1851.14ZM486.956 1873.97C485.789 1875.18 484.313 1875.83 482.736 1876.27C479.745 1877.11 476.682 1877.15 473.613 1876.93C471.512 1876.77 469.461 1876.37 467.542 1875.46C466.25 1874.84 465.14 1874 464.412 1872.73C463.955 1871.94 463.793 1871.11 463.922 1870.28C465.932 1870.28 467.945 1870.28 470.009 1870.28C470.185 1872.21 471.563 1872.99 473.221 1873.39C475.464 1873.94 477.725 1873.92 479.972 1873.33C480.432 1873.21 480.858 1873 481.251 1872.72C482.296 1871.96 482.249 1870.79 481.139 1870.12C480.158 1869.52 479.055 1869.28 477.948 1869.07C475.275 1868.55 472.561 1868.24 469.925 1867.52C468.642 1867.17 467.407 1866.69 466.358 1865.84C464.334 1864.2 464.28 1861.45 466.226 1859.71C467.637 1858.44 469.336 1857.76 471.163 1857.41C475.112 1856.65 479.027 1856.72 482.868 1858.03C484.08 1858.45 485.156 1859.1 486.039 1860.05C486.861 1860.93 487.217 1861.99 487.233 1863.22C485.129 1863.22 483.095 1863.22 481.034 1863.22C480.838 1861.67 479.802 1860.97 478.439 1860.65C476.605 1860.24 474.757 1860.17 472.919 1860.64C472.439 1860.77 471.996 1860.99 471.61 1861.31C470.72 1862.05 470.855 1863.25 471.911 1863.71C473.19 1864.26 474.574 1864.43 475.931 1864.69C478.144 1865.1 480.388 1865.35 482.577 1865.88C484.049 1866.23 485.42 1866.81 486.631 1867.76C488.902 1869.52 488.472 1872.4 486.956 1873.97ZM517.516 1867.57C517.222 1871.98 514.586 1874.46 510.623 1875.81C509.022 1876.36 507.364 1876.65 505.672 1876.65C501.216 1876.68 496.763 1876.66 492.306 1876.66C492.208 1876.66 492.11 1876.65 491.944 1876.64C491.944 1870.23 491.944 1863.88 491.944 1857.52C492.13 1857.38 492.336 1857.44 492.526 1857.44C496.803 1857.43 501.08 1857.4 505.358 1857.45C508.16 1857.48 510.87 1858.01 513.306 1859.48C516.355 1861.31 517.753 1864.04 517.516 1867.57ZM546.777 1871.8C545.555 1874.04 543.606 1875.43 541.234 1876.17C536.222 1877.73 531.238 1877.61 526.412 1875.46C523.719 1874.25 521.726 1872.29 520.924 1869.36C519.871 1865.51 521.54 1861.62 525.16 1859.35C527.174 1858.08 529.394 1857.39 531.732 1857.12C534.838 1856.77 537.938 1856.84 540.953 1857.81C542.885 1858.43 544.642 1859.34 545.971 1860.93C546.682 1861.78 547.146 1862.74 547.318 1863.9C545.244 1863.9 543.217 1863.9 541.176 1863.9C540.358 1861.87 538.611 1861.11 536.639 1860.75C534.598 1860.38 532.571 1860.48 530.656 1861.36C528.094 1862.54 526.998 1864.63 527.076 1867.37C527.15 1869.96 528.409 1871.8 530.791 1872.8C533.055 1873.75 535.417 1873.8 537.762 1873.13C539.583 1872.61 540.794 1871.41 541.295 1869.55C541.319 1869.46 541.363 1869.37 541.407 1869.25C543.471 1869.25 545.484 1869.25 547.545 1869.25C547.491 1870.18 547.203 1871.02 546.777 1871.8Z" fill="white"/>
<path id="Vector_4" d="M621.812 1864.29C621.264 1863.92 620.77 1863.68 620.238 1863.53C618.685 1863.07 617.095 1862.94 615.484 1863.05C613.954 1863.15 612.462 1863.42 611.112 1864.2C609.653 1865.04 608.97 1866.32 609.227 1867.83C609.467 1869.24 610.445 1870.05 611.653 1870.62C613.589 1871.53 615.653 1871.67 617.744 1871.52C619.142 1871.41 620.553 1871.3 621.761 1870.33C621.907 1870.7 621.727 1871.05 621.896 1871.35C622.756 1871.35 623.595 1871.35 624.461 1871.35C624.461 1867.57 624.461 1863.83 624.461 1860.09C623.571 1860.09 622.729 1860.09 621.812 1860.09C621.812 1861.48 621.812 1862.84 621.812 1864.29ZM620.58 1869.55C619.477 1870.22 618.255 1870.39 616.99 1870.37C615.809 1870.39 614.662 1870.23 613.599 1869.68C612.618 1869.18 611.948 1868.42 611.981 1867.26C612.015 1866.1 612.655 1865.27 613.714 1864.78C615.129 1864.13 616.624 1864.12 618.133 1864.27C618.986 1864.35 619.802 1864.57 620.546 1865.01C622.397 1866.11 622.421 1868.44 620.58 1869.55Z" fill="white"/>
<path id="Vector_5" d="M605.359 1870.25C604.391 1870.25 604.307 1870.17 604.303 1869.21C604.3 1867.99 604.276 1866.76 604.31 1865.54C604.337 1864.62 603.935 1864.04 603.119 1863.7C602.811 1863.57 602.493 1863.44 602.168 1863.38C599.938 1862.91 597.691 1862.93 595.444 1863.19C594.382 1863.32 593.336 1863.55 592.419 1864.14C591.861 1864.51 591.428 1864.97 591.401 1865.72C592.267 1865.72 593.092 1865.72 593.993 1865.72C594.202 1864.91 594.825 1864.61 595.556 1864.44C596.825 1864.15 598.111 1864.16 599.393 1864.25C600.019 1864.29 600.652 1864.39 601.204 1864.75C601.508 1864.95 601.681 1865.22 601.65 1865.59C601.62 1865.94 601.339 1866.07 601.058 1866.17C600.855 1866.24 600.642 1866.3 600.429 1866.33C598.771 1866.62 597.082 1866.59 595.414 1866.8C594.182 1866.96 592.933 1867.06 591.807 1867.66C591.326 1867.91 590.91 1868.24 590.791 1868.82C590.626 1869.64 590.957 1870.27 591.844 1870.72C592.988 1871.29 594.233 1871.39 595.478 1871.42C597.644 1871.48 599.779 1871.3 601.782 1870.24C601.877 1870.99 602.388 1871.2 602.98 1871.33C603.704 1871.48 604.435 1871.47 605.163 1871.37C606.053 1871.25 606.09 1871.19 605.877 1870.25C605.711 1870.25 605.535 1870.25 605.359 1870.25ZM599.955 1869.81C598.334 1870.36 596.659 1870.36 594.981 1870.12C594.788 1870.09 594.598 1870.02 594.416 1869.95C594.006 1869.79 593.573 1869.6 593.563 1869.08C593.553 1868.55 593.945 1868.3 594.389 1868.12C595.262 1867.76 596.185 1867.7 597.109 1867.62C598.598 1867.48 600.104 1867.51 601.573 1867.16C601.725 1868.79 601.776 1869.19 599.955 1869.81Z" fill="white"/>
<path id="Vector_6" d="M584.088 1863.62C582.02 1862.91 579.899 1862.88 577.763 1863.19C576.342 1863.4 574.985 1863.82 573.828 1864.72C572.075 1866.08 571.973 1868.2 573.591 1869.73C574.325 1870.42 575.236 1870.81 576.197 1871.08C578.308 1871.65 580.457 1871.67 582.609 1871.4C583.729 1871.26 584.829 1870.99 585.793 1870.36C586.355 1870 586.846 1869.56 587.079 1868.83C586.271 1868.83 585.519 1868.84 584.771 1868.83C584.599 1868.83 584.477 1868.88 584.379 1869.03C583.983 1869.66 583.347 1869.93 582.667 1870.11C581.486 1870.43 580.278 1870.43 579.073 1870.32C578.125 1870.23 577.195 1870.03 576.373 1869.52C575.703 1869.1 575.252 1868.53 575.246 1867.64C579.279 1867.64 583.289 1867.64 587.357 1867.64C587.397 1866.63 587.11 1865.84 586.507 1865.16C585.854 1864.41 585.015 1863.94 584.088 1863.62ZM575.303 1866.44C575.33 1865.88 575.669 1865.53 576.054 1865.22C576.826 1864.62 577.743 1864.38 578.694 1864.27C580.288 1864.09 581.855 1864.19 583.313 1864.94C584.044 1865.32 584.376 1865.75 584.497 1866.44C581.415 1866.44 578.372 1866.44 575.303 1866.44Z" fill="white"/>
<path id="Vector_7" d="M643.493 1863.14C642.772 1863.14 642.041 1863.16 641.313 1863.13C640.955 1863.12 640.741 1863.24 640.545 1863.54C639.51 1865.11 638.454 1866.66 637.405 1868.21C637.036 1868.76 636.664 1869.3 636.254 1869.89C634.633 1867.59 633.07 1865.37 631.52 1863.17C630.532 1863.17 629.588 1863.17 628.519 1863.17C630.701 1865.95 632.806 1868.63 634.921 1871.33C634.234 1872.02 633.892 1872.96 632.921 1873.28C631.997 1873.6 631.057 1873.39 630.102 1873.34C630.075 1873.76 630.028 1874.13 630.136 1874.5C630.417 1874.54 630.667 1874.58 630.925 1874.61C633.375 1874.85 635.395 1874.24 636.911 1872.09C638.975 1869.18 641.205 1866.37 643.361 1863.52C643.435 1863.42 643.574 1863.34 643.493 1863.14Z" fill="white"/>
<path id="Vector_8" d="M564.275 1864.96C564.275 1864.28 564.275 1863.78 564.275 1863.26C563.436 1863.26 562.654 1863.26 561.856 1863.26C561.856 1865.96 561.856 1868.63 561.856 1871.29C562.729 1871.29 563.551 1871.29 564.441 1871.29C564.441 1870.24 564.441 1869.22 564.441 1868.2C564.441 1866.24 565.165 1865.3 567.046 1864.79C568.099 1864.51 569.175 1864.45 570.282 1864.42C570.282 1863.94 570.282 1863.52 570.282 1863.02C568.072 1862.99 566.035 1863.33 564.275 1864.96Z" fill="white"/>
<path id="Vector_9" d="M509.242 1862.69C508.369 1861.97 507.334 1861.58 506.237 1861.36C503.652 1860.84 501.033 1861.06 498.38 1861C498.38 1865.08 498.38 1869.07 498.38 1873.11C500.992 1873.02 503.571 1873.27 506.129 1872.87C509.033 1872.42 510.887 1870.61 511.09 1867.9C511.239 1865.92 510.884 1864.06 509.242 1862.69Z" fill="white"/>
</g>
</g>
<g id="sdc_ready_inline_transp 3">
<g id="Group_3">
<path id="Vector_10" d="M384.971 1783.79C383.178 1783.35 381.347 1783.25 379.505 1783.25C357.794 1783.25 336.078 1783.25 314.367 1783.25C292.656 1783.25 270.94 1783.25 249.229 1783.24C247.573 1783.24 245.934 1783.34 244.3 1783.62C240.09 1784.33 237.556 1786.61 236.619 1790.58C236.284 1792 236.162 1793.46 236.167 1794.92C236.178 1803.81 236.172 1812.69 236.167 1821.57C236.167 1822.85 236.22 1824.12 236.353 1825.38C236.827 1829.86 239.302 1832.65 243.709 1833.62C245.327 1833.99 246.967 1834.14 248.617 1834.14C292.289 1834.14 335.966 1834.14 379.638 1834.14C381.107 1834.14 382.56 1834.04 384.003 1833.77C387.989 1833.02 390.848 1830.92 392.024 1826.91C392.508 1825.26 392.636 1823.55 392.636 1821.84C392.652 1814.61 392.647 1807.37 392.636 1800.13C392.631 1797.65 392.673 1795.17 392.482 1792.69C392.13 1788.04 389.517 1784.89 384.971 1783.79ZM284.837 1819.67C283.001 1821.57 280.68 1822.59 278.2 1823.28C273.494 1824.6 268.678 1824.67 263.85 1824.32C260.545 1824.07 257.319 1823.44 254.301 1822C252.268 1821.03 250.522 1819.72 249.378 1817.73C248.659 1816.47 248.404 1815.17 248.606 1813.86C251.768 1813.86 254.935 1813.86 258.181 1813.86C258.458 1816.9 260.624 1818.12 263.232 1818.76C266.761 1819.63 270.317 1819.59 273.851 1818.66C274.575 1818.47 275.246 1818.14 275.863 1817.7C277.508 1816.52 277.433 1814.67 275.687 1813.61C274.144 1812.68 272.409 1812.3 270.668 1811.97C266.463 1811.16 262.195 1810.66 258.048 1809.53C256.031 1808.97 254.088 1808.23 252.438 1806.89C249.255 1804.31 249.17 1800 252.231 1797.25C254.45 1795.26 257.122 1794.2 259.996 1793.64C266.208 1792.45 272.366 1792.56 278.407 1794.62C280.313 1795.28 282.005 1796.3 283.395 1797.79C284.688 1799.18 285.247 1800.83 285.273 1802.78C281.963 1802.78 278.764 1802.78 275.522 1802.78C275.214 1800.35 273.585 1799.23 271.44 1798.74C268.555 1798.09 265.649 1797.97 262.759 1798.72C262.003 1798.92 261.306 1799.27 260.699 1799.77C259.299 1800.93 259.512 1802.82 261.173 1803.55C263.185 1804.42 265.362 1804.68 267.496 1805.08C270.977 1805.73 274.506 1806.11 277.95 1806.95C280.265 1807.51 282.421 1808.42 284.326 1809.91C287.897 1812.67 287.222 1817.19 284.837 1819.67ZM332.906 1809.62C332.442 1816.54 328.296 1820.44 322.063 1822.57C319.546 1823.43 316.938 1823.87 314.276 1823.88C307.266 1823.92 300.262 1823.9 293.252 1823.9C293.098 1823.9 292.943 1823.88 292.683 1823.86C292.683 1813.79 292.683 1803.81 292.683 1793.82C292.975 1793.59 293.3 1793.69 293.598 1793.69C300.326 1793.68 307.054 1793.63 313.781 1793.7C318.188 1793.75 322.452 1794.59 326.284 1796.89C331.08 1799.77 333.278 1804.06 332.906 1809.62ZM378.93 1816.26C377.009 1819.78 373.943 1821.97 370.212 1823.13C362.329 1825.58 354.489 1825.39 346.899 1822C342.662 1820.11 339.527 1817.03 338.265 1812.42C336.61 1806.37 339.234 1800.26 344.929 1796.69C348.096 1794.7 351.588 1793.61 355.266 1793.19C360.152 1792.63 365.028 1792.75 369.77 1794.27C372.809 1795.25 375.572 1796.68 377.663 1799.18C378.781 1800.51 379.51 1802.02 379.782 1803.84C376.519 1803.84 373.331 1803.84 370.121 1803.84C368.833 1800.66 366.087 1799.45 362.984 1798.89C359.774 1798.31 356.586 1798.47 353.573 1799.86C349.544 1801.7 347.819 1804.99 347.942 1809.3C348.059 1813.36 350.039 1816.26 353.786 1817.83C357.347 1819.32 361.062 1819.4 364.751 1818.35C367.614 1817.53 369.52 1815.65 370.308 1812.73C370.345 1812.58 370.414 1812.43 370.483 1812.25C373.73 1812.25 376.897 1812.25 380.138 1812.25C380.053 1813.71 379.601 1815.02 378.93 1816.26Z" fill="white"/>
<path id="Vector_11" d="M496.954 1804.45C496.092 1803.87 495.315 1803.5 494.479 1803.25C492.036 1802.54 489.534 1802.34 487.001 1802.51C484.595 1802.66 482.248 1803.09 480.124 1804.32C477.83 1805.64 476.755 1807.65 477.159 1810.03C477.537 1812.23 479.075 1813.51 480.975 1814.4C484.02 1815.83 487.267 1816.05 490.556 1815.81C492.754 1815.65 494.974 1815.47 496.874 1813.95C497.103 1814.53 496.821 1815.08 497.087 1815.56C498.439 1815.56 499.759 1815.56 501.122 1815.56C501.122 1809.61 501.122 1803.74 501.122 1797.86C499.722 1797.86 498.396 1797.86 496.954 1797.86C496.954 1800.04 496.954 1802.18 496.954 1804.45ZM495.017 1812.72C493.281 1813.77 491.36 1814.05 489.369 1814.01C487.512 1814.04 485.707 1813.79 484.036 1812.93C482.492 1812.13 481.439 1810.94 481.492 1809.13C481.545 1807.29 482.551 1806 484.217 1805.23C486.442 1804.2 488.794 1804.19 491.168 1804.42C492.51 1804.55 493.792 1804.9 494.963 1805.59C497.875 1807.32 497.912 1810.98 495.017 1812.72Z" fill="white"/>
<path id="Vector_12" d="M471.075 1813.82C469.553 1813.81 469.42 1813.69 469.415 1812.19C469.409 1810.26 469.372 1808.34 469.425 1806.42C469.468 1804.98 468.835 1804.06 467.552 1803.52C467.067 1803.32 466.567 1803.13 466.056 1803.02C462.549 1802.28 459.014 1802.31 455.48 1802.73C453.809 1802.93 452.164 1803.29 450.722 1804.23C449.843 1804.8 449.162 1805.53 449.12 1806.7C450.482 1806.7 451.781 1806.7 453.197 1806.7C453.527 1805.43 454.506 1804.96 455.656 1804.7C457.652 1804.24 459.674 1804.25 461.692 1804.39C462.676 1804.46 463.672 1804.61 464.539 1805.18C465.018 1805.49 465.29 1805.92 465.242 1806.5C465.194 1807.05 464.752 1807.26 464.31 1807.41C463.991 1807.53 463.656 1807.61 463.32 1807.67C460.712 1808.12 458.056 1808.07 455.432 1808.41C453.495 1808.66 451.531 1808.8 449.758 1809.74C449.002 1810.14 448.348 1810.66 448.161 1811.57C447.901 1812.87 448.422 1813.86 449.817 1814.55C451.616 1815.45 453.575 1815.61 455.533 1815.66C458.94 1815.75 462.298 1815.46 465.449 1813.8C465.598 1814.98 466.402 1815.32 467.334 1815.51C468.473 1815.75 469.622 1815.74 470.767 1815.59C472.166 1815.4 472.225 1815.3 471.89 1813.81C471.629 1813.82 471.352 1813.82 471.075 1813.82ZM462.575 1813.13C460.026 1814 457.391 1813.99 454.751 1813.61C454.447 1813.57 454.149 1813.46 453.862 1813.35C453.218 1813.09 452.537 1812.8 452.521 1811.99C452.505 1811.15 453.122 1810.75 453.819 1810.47C455.193 1809.91 456.646 1809.82 458.099 1809.69C460.441 1809.47 462.809 1809.52 465.119 1808.96C465.359 1811.52 465.439 1812.15 462.575 1813.13Z" fill="white"/>
<path id="Vector_13" d="M437.617 1803.4C434.365 1802.28 431.028 1802.25 427.669 1802.73C425.434 1803.06 423.3 1803.72 421.479 1805.13C418.722 1807.27 418.562 1810.6 421.107 1813C422.262 1814.1 423.693 1814.71 425.205 1815.12C428.526 1816.02 431.906 1816.05 435.291 1815.62C437.053 1815.4 438.783 1814.98 440.3 1814C441.184 1813.43 441.955 1812.73 442.323 1811.6C441.05 1811.6 439.869 1811.6 438.693 1811.59C438.421 1811.59 438.23 1811.67 438.075 1811.91C437.452 1812.9 436.452 1813.33 435.382 1813.61C433.524 1814.1 431.624 1814.11 429.729 1813.93C428.239 1813.79 426.775 1813.47 425.482 1812.67C424.428 1812.01 423.72 1811.12 423.709 1809.72C430.054 1809.72 436.361 1809.72 442.759 1809.72C442.823 1808.14 442.37 1806.89 441.423 1805.82C440.396 1804.65 439.076 1803.91 437.617 1803.4ZM423.8 1807.84C423.842 1806.95 424.375 1806.4 424.982 1805.92C426.195 1804.97 427.637 1804.6 429.133 1804.43C431.64 1804.15 434.104 1804.29 436.399 1805.48C437.548 1806.07 438.07 1806.75 438.261 1807.83C433.413 1807.84 428.628 1807.84 423.8 1807.84Z" fill="white"/>
<path id="Vector_14" d="M531.056 1802.65C529.922 1802.65 528.773 1802.68 527.628 1802.64C527.064 1802.62 526.729 1802.81 526.42 1803.28C524.791 1805.74 523.131 1808.18 521.481 1810.62C520.9 1811.47 520.315 1812.32 519.671 1813.26C517.121 1809.64 514.662 1806.15 512.225 1802.69C510.67 1802.69 509.185 1802.69 507.503 1802.69C510.936 1807.06 514.247 1811.28 517.574 1815.51C516.493 1816.6 515.956 1818.08 514.428 1818.59C512.975 1819.08 511.495 1818.76 509.994 1818.67C509.952 1819.34 509.877 1819.92 510.048 1820.5C510.489 1820.56 510.883 1820.63 511.288 1820.67C515.141 1821.05 518.319 1820.09 520.703 1816.72C523.95 1812.13 527.458 1807.73 530.848 1803.25C530.965 1803.09 531.184 1802.96 531.056 1802.65Z" fill="white"/>
<path id="Vector_15" d="M406.453 1805.51C406.453 1804.44 406.453 1803.65 406.453 1802.84C405.133 1802.84 403.904 1802.84 402.648 1802.84C402.648 1807.08 402.648 1811.27 402.648 1815.45C404.021 1815.45 405.314 1815.45 406.714 1815.45C406.714 1813.8 406.714 1812.2 406.714 1810.59C406.714 1807.52 407.853 1806.05 410.813 1805.24C412.468 1804.8 414.161 1804.71 415.901 1804.66C415.901 1803.91 415.901 1803.24 415.901 1802.46C412.425 1802.42 409.221 1802.94 406.453 1805.51Z" fill="white"/>
<path id="Vector_16" d="M319.892 1801.95C318.518 1800.81 316.89 1800.2 315.165 1799.85C311.099 1799.04 306.979 1799.38 302.806 1799.29C302.806 1805.69 302.806 1811.97 302.806 1818.32C306.915 1818.18 310.971 1818.57 314.995 1817.94C319.562 1817.23 322.479 1814.39 322.798 1810.13C323.032 1807.01 322.473 1804.09 319.892 1801.95Z" fill="white"/>
</g>
</g>
<g id="Group_4">
<path id="Vector_17" d="M744.474 1781H604.511C595.045 1781 591 1784.43 591 1793.57V1822.54C591 1831.54 594.92 1835.11 604.511 1835.11H744.489C753.33 1835.11 758 1831.23 758 1822.54V1793.57C757.984 1784.43 753.314 1781 744.474 1781ZM651.29 1792.05H672.22C675.343 1792.05 678.249 1792.38 680.951 1793.04C683.637 1793.71 685.98 1794.69 687.948 1796.01C689.916 1797.33 691.462 1798.97 692.571 1800.96C693.68 1802.94 694.243 1805.26 694.243 1807.93C694.243 1810.27 693.79 1812.43 692.884 1814.41C691.978 1816.4 690.603 1818.11 688.776 1819.55C686.948 1820.99 684.652 1822.12 681.919 1822.95C679.186 1823.77 675.953 1824.19 672.235 1824.19H651.29V1792.05ZM604.136 1813.53H614.46C614.46 1814.61 614.757 1815.53 615.35 1816.27C615.944 1817.02 616.725 1817.64 617.693 1818.09C618.662 1818.56 619.802 1818.9 621.129 1819.13C622.441 1819.35 623.8 1819.46 625.206 1819.46C626.159 1819.46 627.174 1819.41 628.267 1819.3C629.361 1819.19 630.376 1818.99 631.329 1818.7C632.281 1818.4 633.078 1817.98 633.703 1817.45C634.343 1816.93 634.656 1816.26 634.656 1815.45C634.656 1814.58 634.234 1813.87 633.406 1813.34C632.563 1812.8 631.469 1812.35 630.11 1811.99C628.751 1811.63 627.205 1811.31 625.487 1811.04C623.769 1810.78 622.02 1810.47 620.255 1810.14C618.443 1809.85 616.678 1809.48 614.96 1809.04C613.242 1808.61 611.695 1808.05 610.337 1807.35C608.978 1806.67 607.884 1805.8 607.041 1804.76C606.197 1803.72 605.791 1802.48 605.791 1801C605.791 1799.36 606.322 1797.92 607.384 1796.71C608.447 1795.49 609.837 1794.47 611.555 1793.66C613.273 1792.86 615.225 1792.25 617.396 1791.86C619.567 1791.48 621.738 1791.27 623.925 1791.27C626.455 1791.27 628.892 1791.46 631.235 1791.83C633.562 1792.2 635.64 1792.81 637.451 1793.65C639.263 1794.49 640.7 1795.56 641.762 1796.86C642.824 1798.16 643.355 1799.75 643.355 1801.61H633.016C632.922 1800.65 632.625 1799.86 632.094 1799.22C631.579 1798.58 630.876 1798.09 630.017 1797.73C629.158 1797.37 628.174 1797.11 627.065 1796.97C625.956 1796.81 624.737 1796.75 623.425 1796.75C622.566 1796.75 621.707 1796.81 620.848 1796.94C619.989 1797.06 619.208 1797.26 618.505 1797.57C617.802 1797.87 617.225 1798.26 616.772 1798.71C616.319 1799.16 616.1 1799.73 616.1 1800.41C616.1 1801.05 616.287 1801.55 616.647 1801.95C617.006 1802.34 617.724 1802.7 618.786 1803.04C619.849 1803.36 621.317 1803.7 623.207 1804.03C625.081 1804.36 627.549 1804.77 630.579 1805.29C631.485 1805.41 632.734 1805.63 634.343 1805.94C635.952 1806.25 637.545 1806.76 639.138 1807.44C640.716 1808.14 642.09 1809.06 643.246 1810.21C644.402 1811.35 644.98 1812.84 644.98 1814.64C644.98 1816.12 644.542 1817.48 643.683 1818.74C642.824 1820 641.544 1821.09 639.841 1822C638.139 1822.92 636.03 1823.63 633.515 1824.14C631.001 1824.65 628.095 1824.9 624.784 1824.9C622.113 1824.9 619.521 1824.69 617.006 1824.25C614.491 1823.82 612.273 1823.13 610.352 1822.2C608.431 1821.27 606.9 1820.09 605.76 1818.65C604.636 1817.21 604.089 1815.5 604.136 1813.53ZM742.6 1817.25C741.459 1818.87 739.976 1820.25 738.117 1821.4C736.258 1822.53 734.087 1823.4 731.588 1824C729.105 1824.61 726.356 1824.9 723.372 1824.9C719.655 1824.9 716.312 1824.47 713.345 1823.61C710.377 1822.76 707.878 1821.58 705.832 1820.08C703.802 1818.57 702.224 1816.82 701.146 1814.78C700.053 1812.75 699.522 1810.58 699.522 1808.24C699.522 1805.83 700.069 1803.61 701.146 1801.55C702.24 1799.5 703.802 1797.7 705.832 1796.16C707.878 1794.63 710.377 1793.43 713.345 1792.56C716.312 1791.69 719.655 1791.26 723.372 1791.26C726.043 1791.26 728.574 1791.51 730.948 1792.02C733.322 1792.53 735.462 1793.28 737.336 1794.25C739.21 1795.23 740.772 1796.44 741.99 1797.87C743.209 1799.31 743.99 1800.96 744.302 1802.82H733.978C733.79 1802.01 733.384 1801.27 732.759 1800.58C732.119 1799.92 731.338 1799.31 730.385 1798.8C729.433 1798.29 728.355 1797.9 727.152 1797.61C725.949 1797.33 724.7 1797.17 723.388 1797.17C720.983 1797.17 718.952 1797.48 717.265 1798.09C715.594 1798.71 714.235 1799.53 713.189 1800.55C712.142 1801.59 711.392 1802.77 710.908 1804.09C710.44 1805.41 710.19 1806.78 710.19 1808.19C710.19 1809.54 710.424 1810.86 710.908 1812.13C711.392 1813.4 712.142 1814.55 713.189 1815.58C714.235 1816.6 715.594 1817.41 717.265 1818.03C718.937 1818.65 720.983 1818.94 723.388 1818.94C726.652 1818.94 729.198 1818.28 731.026 1816.96C732.853 1815.64 733.978 1813.9 734.384 1811.73H744.708C744.443 1813.82 743.74 1815.64 742.6 1817.25Z" fill="white"/>
<path id="Vector_18" d="M679.826 1816.1C680.951 1815.34 681.857 1814.35 682.544 1813.11C683.215 1811.88 683.559 1810.38 683.559 1808.61C683.559 1806.99 683.325 1805.52 682.841 1804.22C682.372 1802.91 681.591 1801.8 680.498 1800.86C679.404 1799.93 677.967 1799.22 676.187 1798.72C674.391 1798.23 672.188 1797.98 669.564 1797.98H661.958V1818.23H671.47C673.016 1818.23 674.5 1818.06 675.953 1817.73C677.405 1817.42 678.686 1816.88 679.826 1816.1Z" fill="white"/>
</g>
<g id="Group_5">
<path id="Vector_19" d="M767.592 1919H682.239C676.467 1919 674 1921.09 674 1926.67V1944.33C674 1949.82 676.391 1952 682.239 1952H767.601C772.992 1952 775.84 1949.63 775.84 1944.33V1926.67C775.831 1921.09 772.983 1919 767.592 1919ZM710.766 1925.74H723.529C725.434 1925.74 727.206 1925.94 728.854 1926.34C730.492 1926.75 731.921 1927.35 733.121 1928.15C734.321 1928.96 735.264 1929.96 735.94 1931.17C736.617 1932.38 736.96 1933.79 736.96 1935.42C736.96 1936.85 736.683 1938.16 736.131 1939.38C735.578 1940.59 734.74 1941.63 733.626 1942.51C732.511 1943.39 731.111 1944.08 729.444 1944.58C727.778 1945.08 725.806 1945.34 723.539 1945.34H710.766V1925.74ZM682.01 1938.84H688.306C688.306 1939.5 688.487 1940.06 688.849 1940.51C689.211 1940.97 689.688 1941.34 690.278 1941.62C690.869 1941.9 691.564 1942.11 692.374 1942.25C693.174 1942.38 694.002 1942.45 694.86 1942.45C695.441 1942.45 696.06 1942.42 696.726 1942.36C697.393 1942.29 698.012 1942.17 698.593 1941.99C699.174 1941.81 699.66 1941.55 700.041 1941.23C700.432 1940.91 700.622 1940.5 700.622 1940.01C700.622 1939.48 700.365 1939.04 699.86 1938.72C699.346 1938.39 698.679 1938.12 697.85 1937.9C697.022 1937.68 696.079 1937.48 695.031 1937.32C693.983 1937.16 692.916 1936.97 691.84 1936.77C690.735 1936.59 689.659 1936.37 688.611 1936.1C687.563 1935.84 686.62 1935.5 685.792 1935.07C684.963 1934.65 684.296 1934.12 683.782 1933.49C683.268 1932.85 683.02 1932.1 683.02 1931.2C683.02 1930.2 683.344 1929.32 683.992 1928.58C684.639 1927.84 685.487 1927.21 686.535 1926.72C687.583 1926.23 688.773 1925.86 690.097 1925.62C691.421 1925.39 692.745 1925.26 694.078 1925.26C695.622 1925.26 697.107 1925.38 698.536 1925.61C699.955 1925.83 701.222 1926.2 702.327 1926.71C703.432 1927.22 704.308 1927.88 704.956 1928.67C705.604 1929.47 705.927 1930.43 705.927 1931.57H699.622C699.565 1930.98 699.384 1930.5 699.06 1930.11C698.746 1929.72 698.317 1929.42 697.793 1929.2C697.269 1928.98 696.669 1928.82 695.993 1928.74C695.317 1928.64 694.574 1928.61 693.774 1928.61C693.25 1928.61 692.726 1928.64 692.202 1928.72C691.678 1928.79 691.202 1928.92 690.773 1929.11C690.345 1929.29 689.992 1929.52 689.716 1929.8C689.44 1930.07 689.307 1930.42 689.307 1930.84C689.307 1931.23 689.421 1931.53 689.64 1931.78C689.859 1932.01 690.297 1932.23 690.945 1932.44C691.592 1932.64 692.488 1932.85 693.64 1933.04C694.783 1933.24 696.288 1933.5 698.136 1933.81C698.689 1933.89 699.451 1934.02 700.432 1934.21C701.413 1934.4 702.384 1934.71 703.356 1935.13C704.318 1935.55 705.156 1936.11 705.861 1936.81C706.566 1937.51 706.918 1938.42 706.918 1939.52C706.918 1940.42 706.651 1941.25 706.127 1942.02C705.604 1942.78 704.823 1943.44 703.784 1944C702.746 1944.56 701.46 1945 699.927 1945.31C698.393 1945.62 696.622 1945.77 694.602 1945.77C692.974 1945.77 691.392 1945.64 689.859 1945.38C688.325 1945.11 686.973 1944.69 685.801 1944.13C684.63 1943.56 683.696 1942.84 683.001 1941.96C682.315 1941.08 681.982 1940.04 682.01 1938.84ZM766.449 1941.11C765.753 1942.09 764.848 1942.93 763.715 1943.63C762.582 1944.32 761.258 1944.85 759.734 1945.22C758.219 1945.59 756.543 1945.77 754.723 1945.77C752.457 1945.77 750.418 1945.51 748.609 1944.99C746.799 1944.47 745.275 1943.75 744.027 1942.83C742.789 1941.91 741.827 1940.84 741.17 1939.6C740.503 1938.36 740.179 1937.04 740.179 1935.61C740.179 1934.14 740.512 1932.79 741.17 1931.53C741.836 1930.28 742.789 1929.18 744.027 1928.25C745.275 1927.31 746.799 1926.58 748.609 1926.05C750.418 1925.52 752.457 1925.26 754.723 1925.26C756.352 1925.26 757.895 1925.41 759.343 1925.72C760.791 1926.03 762.096 1926.49 763.239 1927.08C764.382 1927.68 765.334 1928.42 766.077 1929.29C766.82 1930.17 767.296 1931.17 767.487 1932.31H761.191C761.077 1931.81 760.829 1931.36 760.448 1930.94C760.057 1930.54 759.581 1930.17 759 1929.85C758.419 1929.54 757.762 1929.31 757.029 1929.13C756.295 1928.96 755.533 1928.86 754.733 1928.86C753.266 1928.86 752.028 1929.05 750.999 1929.42C749.98 1929.8 749.151 1930.3 748.513 1930.92C747.875 1931.56 747.418 1932.28 747.123 1933.08C746.837 1933.89 746.684 1934.72 746.684 1935.58C746.684 1936.4 746.827 1937.21 747.123 1937.98C747.418 1938.76 747.875 1939.46 748.513 1940.09C749.151 1940.71 749.98 1941.2 750.999 1941.58C752.018 1941.96 753.266 1942.14 754.733 1942.14C756.724 1942.14 758.276 1941.73 759.391 1940.93C760.505 1940.12 761.191 1939.06 761.439 1937.74H767.735C767.573 1939.02 767.144 1940.12 766.449 1941.11Z" fill="white"/>
<path id="Vector_20" d="M728.168 1940.41C728.854 1939.94 729.406 1939.34 729.825 1938.58C730.235 1937.83 730.445 1936.91 730.445 1935.84C730.445 1934.85 730.302 1933.95 730.006 1933.16C729.721 1932.36 729.244 1931.68 728.578 1931.11C727.911 1930.55 727.035 1930.11 725.949 1929.81C724.853 1929.5 723.51 1929.35 721.91 1929.35H717.272V1941.7H723.072C724.015 1941.7 724.92 1941.6 725.806 1941.4C726.692 1941.21 727.473 1940.88 728.168 1940.41Z" fill="white"/>
</g>
<text id="@mediTEC" fill="black" xml:space="preserve" style="white-space: pre" font-family="Inter" font-size="20" letter-spacing="0em"><tspan x="1823.74" y="2265.27">@mediTEC</tspan></text>
</g>
<defs>
<filter id="filter0_d_0_1" x="1293" y="1215" width="490" height="489" filterUnits="userSpaceOnUse" color-interpolation-filters="sRGB">
<feFlood flood-opacity="0" result="BackgroundImageFix"/>
<feColorMatrix in="SourceAlpha" type="matrix" values="0 0 0 0 0 0 0 0 0 0 0 0 0 0 0 0 0 0 127 0" result="hardAlpha"/>
<feOffset dy="4"/>
<feGaussianBlur stdDeviation="2"/>
<feComposite in2="hardAlpha" operator="out"/>
<feColorMatrix type="matrix" values="0 0 0 0 0 0 0 0 0 0 0 0 0 0 0 0 0 0 0.25 0"/>
<feBlend mode="normal" in2="BackgroundImageFix" result="effect1_dropShadow_0_1"/>
<feBlend mode="normal" in="SourceGraphic" in2="effect1_dropShadow_0_1" result="shape"/>
</filter>
<filter id="filter1_d_0_1" x="11" y="851" width="536" height="400" filterUnits="userSpaceOnUse" color-interpolation-filters="sRGB">
<feFlood flood-opacity="0" result="BackgroundImageFix"/>
<feColorMatrix in="SourceAlpha" type="matrix" values="0 0 0 0 0 0 0 0 0 0 0 0 0 0 0 0 0 0 127 0" result="hardAlpha"/>
<feOffset dy="4"/>
<feGaussianBlur stdDeviation="2"/>
<feComposite in2="hardAlpha" operator="out"/>
<feColorMatrix type="matrix" values="0 0 0 0 0 0 0 0 0 0 0 0 0 0 0 0 0 0 0.25 0"/>
<feBlend mode="normal" in2="BackgroundImageFix" result="effect1_dropShadow_0_1"/>
<feBlend mode="normal" in="SourceGraphic" in2="effect1_dropShadow_0_1" result="shape"/>
</filter>
<filter id="filter2_d_0_1" x="11" y="143" width="574" height="403" filterUnits="userSpaceOnUse" color-interpolation-filters="sRGB">
<feFlood flood-opacity="0" result="BackgroundImageFix"/>
<feColorMatrix in="SourceAlpha" type="matrix" values="0 0 0 0 0 0 0 0 0 0 0 0 0 0 0 0 0 0 127 0" result="hardAlpha"/>
<feOffset dy="4"/>
<feGaussianBlur stdDeviation="2"/>
<feComposite in2="hardAlpha" operator="out"/>
<feColorMatrix type="matrix" values="0 0 0 0 0 0 0 0 0 0 0 0 0 0 0 0 0 0 0.25 0"/>
<feBlend mode="normal" in2="BackgroundImageFix" result="effect1_dropShadow_0_1"/>
<feBlend mode="normal" in="SourceGraphic" in2="effect1_dropShadow_0_1" result="shape"/>
</filter>
<filter id="filter3_d_0_1" x="1380" y="634" width="537" height="363.499" filterUnits="userSpaceOnUse" color-interpolation-filters="sRGB">
<feFlood flood-opacity="0" result="BackgroundImageFix"/>
<feColorMatrix in="SourceAlpha" type="matrix" values="0 0 0 0 0 0 0 0 0 0 0 0 0 0 0 0 0 0 127 0" result="hardAlpha"/>
<feOffset dy="4"/>
<feGaussianBlur stdDeviation="2"/>
<feComposite in2="hardAlpha" operator="out"/>
<feColorMatrix type="matrix" values="0 0 0 0 0 0 0 0 0 0 0 0 0 0 0 0 0 0 0.25 0"/>
<feBlend mode="normal" in2="BackgroundImageFix" result="effect1_dropShadow_0_1"/>
<feBlend mode="normal" in="SourceGraphic" in2="effect1_dropShadow_0_1" result="shape"/>
</filter>
<filter id="filter4_d_0_1" x="195" y="1215" width="490" height="483" filterUnits="userSpaceOnUse" color-interpolation-filters="sRGB">
<feFlood flood-opacity="0" result="BackgroundImageFix"/>
<feColorMatrix in="SourceAlpha" type="matrix" values="0 0 0 0 0 0 0 0 0 0 0 0 0 0 0 0 0 0 127 0" result="hardAlpha"/>
<feOffset dy="4"/>
<feGaussianBlur stdDeviation="2"/>
<feComposite in2="hardAlpha" operator="out"/>
<feColorMatrix type="matrix" values="0 0 0 0 0 0 0 0 0 0 0 0 0 0 0 0 0 0 0.25 0"/>
<feBlend mode="normal" in2="BackgroundImageFix" result="effect1_dropShadow_0_1"/>
<feBlend mode="normal" in="SourceGraphic" in2="effect1_dropShadow_0_1" result="shape"/>
</filter>
<filter id="filter5_d_0_1" x="710" y="1216" width="563" height="482" filterUnits="userSpaceOnUse" color-interpolation-filters="sRGB">
<feFlood flood-opacity="0" result="BackgroundImageFix"/>
<feColorMatrix in="SourceAlpha" type="matrix" values="0 0 0 0 0 0 0 0 0 0 0 0 0 0 0 0 0 0 127 0" result="hardAlpha"/>
<feOffset dy="4"/>
<feGaussianBlur stdDeviation="2"/>
<feComposite in2="hardAlpha" operator="out"/>
<feColorMatrix type="matrix" values="0 0 0 0 0 0 0 0 0 0 0 0 0 0 0 0 0 0 0.25 0"/>
<feBlend mode="normal" in2="BackgroundImageFix" result="effect1_dropShadow_0_1"/>
<feBlend mode="normal" in="SourceGraphic" in2="effect1_dropShadow_0_1" result="shape"/>
</filter>
<filter id="filter6_d_0_1" x="1431" y="506" width="494" height="107.45" filterUnits="userSpaceOnUse" color-interpolation-filters="sRGB">
<feFlood flood-opacity="0" result="BackgroundImageFix"/>
<feColorMatrix in="SourceAlpha" type="matrix" values="0 0 0 0 0 0 0 0 0 0 0 0 0 0 0 0 0 0 127 0" result="hardAlpha"/>
<feOffset dx="8" dy="4"/>
<feGaussianBlur stdDeviation="2"/>
<feComposite in2="hardAlpha" operator="out"/>
<feColorMatrix type="matrix" values="0 0 0 0 0 0 0 0 0 0 0 0 0 0 0 0 0 0 0.25 0"/>
<feBlend mode="normal" in2="BackgroundImageFix" result="effect1_dropShadow_0_1"/>
<feBlend mode="normal" in="SourceGraphic" in2="effect1_dropShadow_0_1" result="shape"/>
</filter>
<filter id="filter7_d_0_1" x="15" y="20" width="487" height="108.444" filterUnits="userSpaceOnUse" color-interpolation-filters="sRGB">
<feFlood flood-opacity="0" result="BackgroundImageFix"/>
<feColorMatrix in="SourceAlpha" type="matrix" values="0 0 0 0 0 0 0 0 0 0 0 0 0 0 0 0 0 0 127 0" result="hardAlpha"/>
<feOffset dx="6" dy="4"/>
<feGaussianBlur stdDeviation="2"/>
<feComposite in2="hardAlpha" operator="out"/>
<feColorMatrix type="matrix" values="0 0 0 0 0 0 0 0 0 0 0 0 0 0 0 0 0 0 0.25 0"/>
<feBlend mode="normal" in2="BackgroundImageFix" result="effect1_dropShadow_0_1"/>
<feBlend mode="normal" in="SourceGraphic" in2="effect1_dropShadow_0_1" result="shape"/>
</filter>
<filter id="filter8_d_0_1" x="1427" y="146" width="490" height="334" filterUnits="userSpaceOnUse" color-interpolation-filters="sRGB">
<feFlood flood-opacity="0" result="BackgroundImageFix"/>
<feColorMatrix in="SourceAlpha" type="matrix" values="0 0 0 0 0 0 0 0 0 0 0 0 0 0 0 0 0 0 127 0" result="hardAlpha"/>
<feOffset dy="4"/>
<feGaussianBlur stdDeviation="2"/>
<feComposite in2="hardAlpha" operator="out"/>
<feColorMatrix type="matrix" values="0 0 0 0 0 0 0 0 0 0 0 0 0 0 0 0 0 0 0.25 0"/>
<feBlend mode="normal" in2="BackgroundImageFix" result="effect1_dropShadow_0_1"/>
<feBlend mode="normal" in="SourceGraphic" in2="effect1_dropShadow_0_1" result="shape"/>
</filter>
<filter id="filter9_d_0_1" x="1431" y="20" width="487" height="108.444" filterUnits="userSpaceOnUse" color-interpolation-filters="sRGB">
<feFlood flood-opacity="0" result="BackgroundImageFix"/>
<feColorMatrix in="SourceAlpha" type="matrix" values="0 0 0 0 0 0 0 0 0 0 0 0 0 0 0 0 0 0 127 0" result="hardAlpha"/>
<feOffset dx="6" dy="4"/>
<feGaussianBlur stdDeviation="2"/>
<feComposite in2="hardAlpha" operator="out"/>
<feColorMatrix type="matrix" values="0 0 0 0 0 0 0 0 0 0 0 0 0 0 0 0 0 0 0.25 0"/>
<feBlend mode="normal" in2="BackgroundImageFix" result="effect1_dropShadow_0_1"/>
<feBlend mode="normal" in="SourceGraphic" in2="effect1_dropShadow_0_1" result="shape"/>
</filter>
<filter id="filter10_d_0_1" x="15" y="728" width="487" height="108.444" filterUnits="userSpaceOnUse" color-interpolation-filters="sRGB">
<feFlood flood-opacity="0" result="BackgroundImageFix"/>
<feColorMatrix in="SourceAlpha" type="matrix" values="0 0 0 0 0 0 0 0 0 0 0 0 0 0 0 0 0 0 127 0" result="hardAlpha"/>
<feOffset dx="6" dy="4"/>
<feGaussianBlur stdDeviation="2"/>
<feComposite in2="hardAlpha" operator="out"/>
<feColorMatrix type="matrix" values="0 0 0 0 0 0 0 0 0 0 0 0 0 0 0 0 0 0 0.25 0"/>
<feBlend mode="normal" in2="BackgroundImageFix" result="effect1_dropShadow_0_1"/>
<feBlend mode="normal" in="SourceGraphic" in2="effect1_dropShadow_0_1" result="shape"/>
</filter>
<filter id="filter11_d_0_1" x="531.534" y="36.1196" width="857.533" height="1209.88" filterUnits="userSpaceOnUse" color-interpolation-filters="sRGB">
<feFlood flood-opacity="0" result="BackgroundImageFix"/>
<feColorMatrix in="SourceAlpha" type="matrix" values="0 0 0 0 0 0 0 0 0 0 0 0 0 0 0 0 0 0 127 0" result="hardAlpha"/>
<feOffset dy="4"/>
<feGaussianBlur stdDeviation="2"/>
<feComposite in2="hardAlpha" operator="out"/>
<feColorMatrix type="matrix" values="0 0 0 0 0 0 0 0 0 0 0 0 0 0 0 0 0 0 0.25 0"/>
<feBlend mode="normal" in2="BackgroundImageFix" result="effect1_dropShadow_0_1"/>
<feBlend mode="normal" in="SourceGraphic" in2="effect1_dropShadow_0_1" result="shape"/>
</filter>
</defs>
</svg>
